<svg width="177" height="82" viewBox="0 0 177 82" fill="none" xmlns="http://www.w3.org/2000/svg">
<mask id="mask0_4_1806" style="mask-type:alpha" maskUnits="userSpaceOnUse" x="0" y="-11" width="189" height="170">
<line x1="2.6498" y1="-7.88881" x2="14.7349" y2="4.19629" stroke="black" stroke-width="0.244156"/>
<line x1="2.44141" y1="6.7246" x2="14.6492" y2="6.7246" stroke="black" stroke-width="0.244156"/>
<line x1="17.2129" y1="-7.80249" x2="17.2129" y2="4.64946" stroke="black" stroke-width="0.244156"/>
<line x1="0.122078" y1="-7.80249" x2="0.122077" y2="4.64946" stroke="black" stroke-width="0.244156"/>
<line x1="2.44141" y1="6.7246" x2="14.6492" y2="6.7246" stroke="black" stroke-width="0.244156"/>
<line x1="2.6498" y1="8.95787" x2="14.7349" y2="21.043" stroke="black" stroke-width="0.244156"/>
<line x1="2.44141" y1="23.5713" x2="14.6492" y2="23.5713" stroke="black" stroke-width="0.244156"/>
<line x1="17.2129" y1="9.04419" x2="17.2129" y2="21.4961" stroke="black" stroke-width="0.244156"/>
<line x1="0.122078" y1="9.04419" x2="0.122077" y2="21.4961" stroke="black" stroke-width="0.244156"/>
<line x1="2.44141" y1="23.5715" x2="14.6492" y2="23.5715" stroke="black" stroke-width="0.244156"/>
<line x1="2.6498" y1="25.8048" x2="14.7349" y2="37.8899" stroke="black" stroke-width="0.244156"/>
<line x1="2.44141" y1="40.4182" x2="14.6492" y2="40.4182" stroke="black" stroke-width="0.244156"/>
<line x1="17.2129" y1="25.8911" x2="17.2129" y2="38.3431" stroke="black" stroke-width="0.244156"/>
<line x1="0.122078" y1="25.8911" x2="0.122077" y2="38.3431" stroke="black" stroke-width="0.244156"/>
<line x1="2.44141" y1="40.4182" x2="14.6492" y2="40.4182" stroke="black" stroke-width="0.244156"/>
<line x1="2.6498" y1="42.6512" x2="14.7349" y2="54.7363" stroke="black" stroke-width="0.244156"/>
<line x1="2.44141" y1="57.2649" x2="14.6492" y2="57.2649" stroke="black" stroke-width="0.244156"/>
<line x1="17.2129" y1="42.7375" x2="17.2129" y2="55.1895" stroke="black" stroke-width="0.244156"/>
<line x1="0.122078" y1="42.7375" x2="0.122077" y2="55.1895" stroke="black" stroke-width="0.244156"/>
<line x1="2.44141" y1="57.2649" x2="14.6492" y2="57.2649" stroke="black" stroke-width="0.244156"/>
<line x1="2.6498" y1="59.4982" x2="14.7349" y2="71.5833" stroke="black" stroke-width="0.244156"/>
<line x1="2.44141" y1="74.1116" x2="14.6492" y2="74.1116" stroke="black" stroke-width="0.244156"/>
<line x1="17.2129" y1="59.5845" x2="17.2129" y2="72.0364" stroke="black" stroke-width="0.244156"/>
<line x1="0.122078" y1="59.5845" x2="0.122077" y2="72.0364" stroke="black" stroke-width="0.244156"/>
<line x1="2.44141" y1="74.1118" x2="14.6492" y2="74.1118" stroke="black" stroke-width="0.244156"/>
<line x1="2.6498" y1="76.3451" x2="14.7349" y2="88.4302" stroke="black" stroke-width="0.244156"/>
<line x1="17.2129" y1="76.4314" x2="17.2129" y2="88.8833" stroke="black" stroke-width="0.244156"/>
<line x1="0.122078" y1="76.4314" x2="0.122077" y2="88.8833" stroke="black" stroke-width="0.244156"/>
<line x1="19.7406" y1="-7.88881" x2="31.8257" y2="4.19629" stroke="black" stroke-width="0.244156"/>
<line x1="19.5322" y1="6.7246" x2="31.74" y2="6.7246" stroke="black" stroke-width="0.244156"/>
<line x1="34.3037" y1="-7.80249" x2="34.3037" y2="4.64946" stroke="black" stroke-width="0.244156"/>
<line x1="17.2129" y1="-7.80249" x2="17.2129" y2="4.64946" stroke="black" stroke-width="0.244156"/>
<line x1="19.5322" y1="6.7246" x2="31.74" y2="6.7246" stroke="black" stroke-width="0.244156"/>
<line x1="19.7406" y1="8.95787" x2="31.8257" y2="21.043" stroke="black" stroke-width="0.244156"/>
<line x1="19.5322" y1="23.5713" x2="31.74" y2="23.5713" stroke="black" stroke-width="0.244156"/>
<line x1="34.3037" y1="9.04419" x2="34.3037" y2="21.4961" stroke="black" stroke-width="0.244156"/>
<line x1="17.2129" y1="9.04419" x2="17.2129" y2="21.4961" stroke="black" stroke-width="0.244156"/>
<line x1="19.5322" y1="23.5715" x2="31.74" y2="23.5715" stroke="black" stroke-width="0.244156"/>
<line x1="19.7406" y1="25.8048" x2="31.8257" y2="37.8899" stroke="black" stroke-width="0.244156"/>
<line x1="19.5322" y1="40.4182" x2="31.74" y2="40.4182" stroke="black" stroke-width="0.244156"/>
<line x1="34.3037" y1="25.8911" x2="34.3037" y2="38.3431" stroke="black" stroke-width="0.244156"/>
<line x1="17.2129" y1="25.8911" x2="17.2129" y2="38.3431" stroke="black" stroke-width="0.244156"/>
<line x1="19.5322" y1="40.4182" x2="31.74" y2="40.4182" stroke="black" stroke-width="0.244156"/>
<line x1="19.7406" y1="42.6512" x2="31.8257" y2="54.7363" stroke="black" stroke-width="0.244156"/>
<line x1="19.5322" y1="57.2649" x2="31.74" y2="57.2649" stroke="black" stroke-width="0.244156"/>
<line x1="34.3037" y1="42.7375" x2="34.3037" y2="55.1895" stroke="black" stroke-width="0.244156"/>
<line x1="17.2129" y1="42.7375" x2="17.2129" y2="55.1895" stroke="black" stroke-width="0.244156"/>
<line x1="19.5322" y1="57.2649" x2="31.74" y2="57.2649" stroke="black" stroke-width="0.244156"/>
<line x1="19.7406" y1="59.4982" x2="31.8257" y2="71.5833" stroke="black" stroke-width="0.244156"/>
<line x1="19.5322" y1="74.1116" x2="31.74" y2="74.1116" stroke="black" stroke-width="0.244156"/>
<line x1="34.3037" y1="59.5845" x2="34.3037" y2="72.0364" stroke="black" stroke-width="0.244156"/>
<line x1="17.2129" y1="59.5845" x2="17.2129" y2="72.0364" stroke="black" stroke-width="0.244156"/>
<line x1="19.5322" y1="74.1118" x2="31.74" y2="74.1118" stroke="black" stroke-width="0.244156"/>
<line x1="19.7406" y1="76.3451" x2="31.8257" y2="88.4302" stroke="black" stroke-width="0.244156"/>
<line x1="34.3037" y1="76.4314" x2="34.3037" y2="88.8833" stroke="black" stroke-width="0.244156"/>
<line x1="17.2129" y1="76.4314" x2="17.2129" y2="88.8833" stroke="black" stroke-width="0.244156"/>
<line x1="36.8314" y1="-7.88881" x2="48.9165" y2="4.19629" stroke="black" stroke-width="0.244156"/>
<line x1="36.623" y1="6.7246" x2="48.8308" y2="6.7246" stroke="black" stroke-width="0.244156"/>
<line x1="51.3945" y1="-7.80249" x2="51.3945" y2="4.64946" stroke="black" stroke-width="0.244156"/>
<line x1="34.3037" y1="-7.80249" x2="34.3037" y2="4.64946" stroke="black" stroke-width="0.244156"/>
<line x1="36.623" y1="6.7246" x2="48.8308" y2="6.7246" stroke="black" stroke-width="0.244156"/>
<line x1="36.8314" y1="8.95787" x2="48.9165" y2="21.043" stroke="black" stroke-width="0.244156"/>
<line x1="36.623" y1="23.5713" x2="48.8308" y2="23.5713" stroke="black" stroke-width="0.244156"/>
<line x1="51.3945" y1="9.04419" x2="51.3945" y2="21.4961" stroke="black" stroke-width="0.244156"/>
<line x1="34.3037" y1="9.04419" x2="34.3037" y2="21.4961" stroke="black" stroke-width="0.244156"/>
<line x1="36.623" y1="23.5715" x2="48.8308" y2="23.5715" stroke="black" stroke-width="0.244156"/>
<line x1="36.8314" y1="25.8048" x2="48.9165" y2="37.8899" stroke="black" stroke-width="0.244156"/>
<line x1="36.623" y1="40.4182" x2="48.8308" y2="40.4182" stroke="black" stroke-width="0.244156"/>
<line x1="51.3945" y1="25.8911" x2="51.3945" y2="38.3431" stroke="black" stroke-width="0.244156"/>
<line x1="34.3037" y1="25.8911" x2="34.3037" y2="38.3431" stroke="black" stroke-width="0.244156"/>
<line x1="36.623" y1="40.4182" x2="48.8308" y2="40.4182" stroke="black" stroke-width="0.244156"/>
<line x1="36.8314" y1="42.6512" x2="48.9165" y2="54.7363" stroke="black" stroke-width="0.244156"/>
<line x1="36.623" y1="57.2649" x2="48.8308" y2="57.2649" stroke="black" stroke-width="0.244156"/>
<line x1="51.3945" y1="42.7375" x2="51.3945" y2="55.1895" stroke="black" stroke-width="0.244156"/>
<line x1="34.3037" y1="42.7375" x2="34.3037" y2="55.1895" stroke="black" stroke-width="0.244156"/>
<line x1="36.623" y1="57.2649" x2="48.8308" y2="57.2649" stroke="black" stroke-width="0.244156"/>
<line x1="36.8314" y1="59.4982" x2="48.9165" y2="71.5833" stroke="black" stroke-width="0.244156"/>
<line x1="36.623" y1="74.1116" x2="48.8308" y2="74.1116" stroke="black" stroke-width="0.244156"/>
<line x1="51.3945" y1="59.5845" x2="51.3945" y2="72.0364" stroke="black" stroke-width="0.244156"/>
<line x1="34.3037" y1="59.5845" x2="34.3037" y2="72.0364" stroke="black" stroke-width="0.244156"/>
<line x1="36.623" y1="74.1118" x2="48.8308" y2="74.1118" stroke="black" stroke-width="0.244156"/>
<line x1="36.8314" y1="76.3451" x2="48.9165" y2="88.4302" stroke="black" stroke-width="0.244156"/>
<line x1="51.3945" y1="76.4314" x2="51.3945" y2="88.8833" stroke="black" stroke-width="0.244156"/>
<line x1="34.3037" y1="76.4314" x2="34.3037" y2="88.8833" stroke="black" stroke-width="0.244156"/>
<line x1="53.9223" y1="-7.88881" x2="66.0074" y2="4.19629" stroke="black" stroke-width="0.244156"/>
<line x1="53.7139" y1="6.7246" x2="65.9217" y2="6.7246" stroke="black" stroke-width="0.244156"/>
<line x1="68.4854" y1="-7.80249" x2="68.4854" y2="4.64946" stroke="black" stroke-width="0.244156"/>
<line x1="51.3945" y1="-7.80249" x2="51.3945" y2="4.64946" stroke="black" stroke-width="0.244156"/>
<line x1="53.7139" y1="6.7246" x2="65.9217" y2="6.7246" stroke="black" stroke-width="0.244156"/>
<line x1="53.9223" y1="8.95787" x2="66.0074" y2="21.043" stroke="black" stroke-width="0.244156"/>
<line x1="53.7139" y1="23.5713" x2="65.9217" y2="23.5713" stroke="black" stroke-width="0.244156"/>
<line x1="68.4854" y1="9.04419" x2="68.4854" y2="21.4961" stroke="black" stroke-width="0.244156"/>
<line x1="51.3945" y1="9.04419" x2="51.3945" y2="21.4961" stroke="black" stroke-width="0.244156"/>
<line x1="53.7139" y1="23.5715" x2="65.9217" y2="23.5715" stroke="black" stroke-width="0.244156"/>
<line x1="53.9223" y1="25.8048" x2="66.0074" y2="37.8899" stroke="black" stroke-width="0.244156"/>
<line x1="53.7139" y1="40.4182" x2="65.9217" y2="40.4182" stroke="black" stroke-width="0.244156"/>
<line x1="68.4854" y1="25.8911" x2="68.4854" y2="38.3431" stroke="black" stroke-width="0.244156"/>
<line x1="51.3945" y1="25.8911" x2="51.3945" y2="38.3431" stroke="black" stroke-width="0.244156"/>
<line x1="53.7139" y1="40.4182" x2="65.9217" y2="40.4182" stroke="black" stroke-width="0.244156"/>
<line x1="53.9223" y1="42.6512" x2="66.0074" y2="54.7363" stroke="black" stroke-width="0.244156"/>
<line x1="53.7139" y1="57.2649" x2="65.9217" y2="57.2649" stroke="black" stroke-width="0.244156"/>
<line x1="68.4854" y1="42.7375" x2="68.4854" y2="55.1895" stroke="black" stroke-width="0.244156"/>
<line x1="51.3945" y1="42.7375" x2="51.3945" y2="55.1895" stroke="black" stroke-width="0.244156"/>
<line x1="53.7139" y1="57.2649" x2="65.9217" y2="57.2649" stroke="black" stroke-width="0.244156"/>
<line x1="53.9223" y1="59.4982" x2="66.0074" y2="71.5833" stroke="black" stroke-width="0.244156"/>
<line x1="53.7139" y1="74.1116" x2="65.9217" y2="74.1116" stroke="black" stroke-width="0.244156"/>
<line x1="68.4854" y1="59.5845" x2="68.4854" y2="72.0364" stroke="black" stroke-width="0.244156"/>
<line x1="51.3945" y1="59.5845" x2="51.3945" y2="72.0364" stroke="black" stroke-width="0.244156"/>
<line x1="53.7139" y1="74.1118" x2="65.9217" y2="74.1118" stroke="black" stroke-width="0.244156"/>
<line x1="53.9223" y1="76.3451" x2="66.0074" y2="88.4302" stroke="black" stroke-width="0.244156"/>
<line x1="68.4854" y1="76.4314" x2="68.4854" y2="88.8833" stroke="black" stroke-width="0.244156"/>
<line x1="51.3945" y1="76.4314" x2="51.3945" y2="88.8833" stroke="black" stroke-width="0.244156"/>
<line x1="71.0131" y1="-7.88881" x2="83.0982" y2="4.19629" stroke="black" stroke-width="0.244156"/>
<line x1="70.8047" y1="6.7246" x2="83.0125" y2="6.7246" stroke="black" stroke-width="0.244156"/>
<line x1="85.5762" y1="-7.80249" x2="85.5762" y2="4.64946" stroke="black" stroke-width="0.244156"/>
<line x1="68.4854" y1="-7.80249" x2="68.4854" y2="4.64946" stroke="black" stroke-width="0.244156"/>
<line x1="70.8047" y1="6.7246" x2="83.0125" y2="6.7246" stroke="black" stroke-width="0.244156"/>
<line x1="71.0131" y1="8.95787" x2="83.0982" y2="21.043" stroke="black" stroke-width="0.244156"/>
<line x1="70.8047" y1="23.5713" x2="83.0125" y2="23.5713" stroke="black" stroke-width="0.244156"/>
<line x1="85.5762" y1="9.04419" x2="85.5762" y2="21.4961" stroke="black" stroke-width="0.244156"/>
<line x1="68.4854" y1="9.04419" x2="68.4854" y2="21.4961" stroke="black" stroke-width="0.244156"/>
<line x1="70.8047" y1="23.5715" x2="83.0125" y2="23.5715" stroke="black" stroke-width="0.244156"/>
<line x1="71.0131" y1="25.8048" x2="83.0982" y2="37.8899" stroke="black" stroke-width="0.244156"/>
<line x1="70.8047" y1="40.4182" x2="83.0125" y2="40.4182" stroke="black" stroke-width="0.244156"/>
<line x1="85.5762" y1="25.8911" x2="85.5762" y2="38.3431" stroke="black" stroke-width="0.244156"/>
<line x1="68.4854" y1="25.8911" x2="68.4854" y2="38.3431" stroke="black" stroke-width="0.244156"/>
<line x1="70.8047" y1="40.4182" x2="83.0125" y2="40.4182" stroke="black" stroke-width="0.244156"/>
<line x1="71.0131" y1="42.6512" x2="83.0982" y2="54.7363" stroke="black" stroke-width="0.244156"/>
<line x1="70.8047" y1="57.2649" x2="83.0125" y2="57.2649" stroke="black" stroke-width="0.244156"/>
<line x1="85.5762" y1="42.7375" x2="85.5762" y2="55.1895" stroke="black" stroke-width="0.244156"/>
<line x1="68.4854" y1="42.7375" x2="68.4854" y2="55.1895" stroke="black" stroke-width="0.244156"/>
<line x1="70.8047" y1="57.2649" x2="83.0125" y2="57.2649" stroke="black" stroke-width="0.244156"/>
<line x1="71.0131" y1="59.4982" x2="83.0982" y2="71.5833" stroke="black" stroke-width="0.244156"/>
<line x1="70.8047" y1="74.1116" x2="83.0125" y2="74.1116" stroke="black" stroke-width="0.244156"/>
<line x1="85.5762" y1="59.5845" x2="85.5762" y2="72.0364" stroke="black" stroke-width="0.244156"/>
<line x1="68.4854" y1="59.5845" x2="68.4854" y2="72.0364" stroke="black" stroke-width="0.244156"/>
<line x1="70.8047" y1="74.1118" x2="83.0125" y2="74.1118" stroke="black" stroke-width="0.244156"/>
<line x1="71.0131" y1="76.3451" x2="83.0982" y2="88.4302" stroke="black" stroke-width="0.244156"/>
<line x1="85.5762" y1="76.4314" x2="85.5762" y2="88.8833" stroke="black" stroke-width="0.244156"/>
<line x1="68.4854" y1="76.4314" x2="68.4854" y2="88.8833" stroke="black" stroke-width="0.244156"/>
<line x1="88.1039" y1="-7.88881" x2="100.189" y2="4.19629" stroke="black" stroke-width="0.244156"/>
<line x1="87.8955" y1="6.7246" x2="100.103" y2="6.7246" stroke="black" stroke-width="0.244156"/>
<line x1="102.667" y1="-7.80249" x2="102.667" y2="4.64946" stroke="black" stroke-width="0.244156"/>
<line x1="85.5762" y1="-7.80249" x2="85.5762" y2="4.64946" stroke="black" stroke-width="0.244156"/>
<line x1="87.8955" y1="6.7246" x2="100.103" y2="6.7246" stroke="black" stroke-width="0.244156"/>
<line x1="88.1039" y1="8.95787" x2="100.189" y2="21.043" stroke="black" stroke-width="0.244156"/>
<line x1="87.8955" y1="23.5713" x2="100.103" y2="23.5713" stroke="black" stroke-width="0.244156"/>
<line x1="102.667" y1="9.04419" x2="102.667" y2="21.4961" stroke="black" stroke-width="0.244156"/>
<line x1="85.5762" y1="9.04419" x2="85.5762" y2="21.4961" stroke="black" stroke-width="0.244156"/>
<line x1="87.8955" y1="23.5715" x2="100.103" y2="23.5715" stroke="black" stroke-width="0.244156"/>
<line x1="88.1039" y1="25.8048" x2="100.189" y2="37.8899" stroke="black" stroke-width="0.244156"/>
<line x1="87.8955" y1="40.4182" x2="100.103" y2="40.4182" stroke="black" stroke-width="0.244156"/>
<line x1="102.667" y1="25.8911" x2="102.667" y2="38.3431" stroke="black" stroke-width="0.244156"/>
<line x1="85.5762" y1="25.8911" x2="85.5762" y2="38.3431" stroke="black" stroke-width="0.244156"/>
<line x1="87.8955" y1="40.4182" x2="100.103" y2="40.4182" stroke="black" stroke-width="0.244156"/>
<line x1="88.1039" y1="42.6512" x2="100.189" y2="54.7363" stroke="black" stroke-width="0.244156"/>
<line x1="87.8955" y1="57.2649" x2="100.103" y2="57.2649" stroke="black" stroke-width="0.244156"/>
<line x1="102.667" y1="42.7375" x2="102.667" y2="55.1895" stroke="black" stroke-width="0.244156"/>
<line x1="85.5762" y1="42.7375" x2="85.5762" y2="55.1895" stroke="black" stroke-width="0.244156"/>
<line x1="87.8955" y1="57.2649" x2="100.103" y2="57.2649" stroke="black" stroke-width="0.244156"/>
<line x1="88.1039" y1="59.4982" x2="100.189" y2="71.5833" stroke="black" stroke-width="0.244156"/>
<line x1="87.8955" y1="74.1116" x2="100.103" y2="74.1116" stroke="black" stroke-width="0.244156"/>
<line x1="102.667" y1="59.5845" x2="102.667" y2="72.0364" stroke="black" stroke-width="0.244156"/>
<line x1="85.5762" y1="59.5845" x2="85.5762" y2="72.0364" stroke="black" stroke-width="0.244156"/>
<line x1="87.8955" y1="74.1118" x2="100.103" y2="74.1118" stroke="black" stroke-width="0.244156"/>
<line x1="88.1039" y1="76.3451" x2="100.189" y2="88.4302" stroke="black" stroke-width="0.244156"/>
<line x1="102.667" y1="76.4314" x2="102.667" y2="88.8833" stroke="black" stroke-width="0.244156"/>
<line x1="85.5762" y1="76.4314" x2="85.5762" y2="88.8833" stroke="black" stroke-width="0.244156"/>
<line x1="105.196" y1="-7.88881" x2="117.281" y2="4.19629" stroke="black" stroke-width="0.244156"/>
<line x1="104.987" y1="6.7246" x2="117.195" y2="6.7246" stroke="black" stroke-width="0.244156"/>
<line x1="119.759" y1="-7.80249" x2="119.759" y2="4.64946" stroke="black" stroke-width="0.244156"/>
<line x1="102.668" y1="-7.80249" x2="102.668" y2="4.64946" stroke="black" stroke-width="0.244156"/>
<line x1="104.987" y1="6.7246" x2="117.195" y2="6.7246" stroke="black" stroke-width="0.244156"/>
<line x1="105.196" y1="8.95787" x2="117.281" y2="21.043" stroke="black" stroke-width="0.244156"/>
<line x1="104.987" y1="23.5713" x2="117.195" y2="23.5713" stroke="black" stroke-width="0.244156"/>
<line x1="119.759" y1="9.04419" x2="119.759" y2="21.4961" stroke="black" stroke-width="0.244156"/>
<line x1="102.668" y1="9.04419" x2="102.668" y2="21.4961" stroke="black" stroke-width="0.244156"/>
<line x1="104.987" y1="23.5715" x2="117.195" y2="23.5715" stroke="black" stroke-width="0.244156"/>
<line x1="105.196" y1="25.8048" x2="117.281" y2="37.8899" stroke="black" stroke-width="0.244156"/>
<line x1="104.987" y1="40.4182" x2="117.195" y2="40.4182" stroke="black" stroke-width="0.244156"/>
<line x1="119.759" y1="25.8911" x2="119.759" y2="38.3431" stroke="black" stroke-width="0.244156"/>
<line x1="102.668" y1="25.8911" x2="102.668" y2="38.3431" stroke="black" stroke-width="0.244156"/>
<line x1="104.987" y1="40.4182" x2="117.195" y2="40.4182" stroke="black" stroke-width="0.244156"/>
<line x1="105.196" y1="42.6512" x2="117.281" y2="54.7363" stroke="black" stroke-width="0.244156"/>
<line x1="104.987" y1="57.2649" x2="117.195" y2="57.2649" stroke="black" stroke-width="0.244156"/>
<line x1="119.759" y1="42.7375" x2="119.759" y2="55.1895" stroke="black" stroke-width="0.244156"/>
<line x1="102.668" y1="42.7375" x2="102.668" y2="55.1895" stroke="black" stroke-width="0.244156"/>
<line x1="104.987" y1="57.2649" x2="117.195" y2="57.2649" stroke="black" stroke-width="0.244156"/>
<line x1="105.196" y1="59.4982" x2="117.281" y2="71.5833" stroke="black" stroke-width="0.244156"/>
<line x1="104.987" y1="74.1116" x2="117.195" y2="74.1116" stroke="black" stroke-width="0.244156"/>
<line x1="119.759" y1="59.5845" x2="119.759" y2="72.0364" stroke="black" stroke-width="0.244156"/>
<line x1="102.668" y1="59.5845" x2="102.668" y2="72.0364" stroke="black" stroke-width="0.244156"/>
<line x1="104.987" y1="74.1118" x2="117.195" y2="74.1118" stroke="black" stroke-width="0.244156"/>
<line x1="105.196" y1="76.3451" x2="117.281" y2="88.4302" stroke="black" stroke-width="0.244156"/>
<line x1="119.759" y1="76.4314" x2="119.759" y2="88.8833" stroke="black" stroke-width="0.244156"/>
<line x1="102.668" y1="76.4314" x2="102.668" y2="88.8833" stroke="black" stroke-width="0.244156"/>
<line x1="122.287" y1="-7.88881" x2="134.372" y2="4.19629" stroke="black" stroke-width="0.244156"/>
<line x1="122.078" y1="6.7246" x2="134.286" y2="6.7246" stroke="black" stroke-width="0.244156"/>
<line x1="136.85" y1="-7.80249" x2="136.85" y2="4.64946" stroke="black" stroke-width="0.244156"/>
<line x1="119.759" y1="-7.80249" x2="119.759" y2="4.64946" stroke="black" stroke-width="0.244156"/>
<line x1="122.078" y1="6.7246" x2="134.286" y2="6.7246" stroke="black" stroke-width="0.244156"/>
<line x1="122.287" y1="8.95787" x2="134.372" y2="21.043" stroke="black" stroke-width="0.244156"/>
<line x1="122.078" y1="23.5713" x2="134.286" y2="23.5713" stroke="black" stroke-width="0.244156"/>
<line x1="136.85" y1="9.04419" x2="136.85" y2="21.4961" stroke="black" stroke-width="0.244156"/>
<line x1="119.759" y1="9.04419" x2="119.759" y2="21.4961" stroke="black" stroke-width="0.244156"/>
<line x1="122.078" y1="23.5715" x2="134.286" y2="23.5715" stroke="black" stroke-width="0.244156"/>
<line x1="122.287" y1="25.8048" x2="134.372" y2="37.8899" stroke="black" stroke-width="0.244156"/>
<line x1="122.078" y1="40.4182" x2="134.286" y2="40.4182" stroke="black" stroke-width="0.244156"/>
<line x1="136.85" y1="25.8911" x2="136.85" y2="38.3431" stroke="black" stroke-width="0.244156"/>
<line x1="119.759" y1="25.8911" x2="119.759" y2="38.3431" stroke="black" stroke-width="0.244156"/>
<line x1="122.078" y1="40.4182" x2="134.286" y2="40.4182" stroke="black" stroke-width="0.244156"/>
<line x1="122.287" y1="42.6512" x2="134.372" y2="54.7363" stroke="black" stroke-width="0.244156"/>
<line x1="122.078" y1="57.2649" x2="134.286" y2="57.2649" stroke="black" stroke-width="0.244156"/>
<line x1="136.85" y1="42.7375" x2="136.85" y2="55.1895" stroke="black" stroke-width="0.244156"/>
<line x1="119.759" y1="42.7375" x2="119.759" y2="55.1895" stroke="black" stroke-width="0.244156"/>
<line x1="122.078" y1="57.2649" x2="134.286" y2="57.2649" stroke="black" stroke-width="0.244156"/>
<line x1="122.287" y1="59.4982" x2="134.372" y2="71.5833" stroke="black" stroke-width="0.244156"/>
<line x1="122.078" y1="74.1116" x2="134.286" y2="74.1116" stroke="black" stroke-width="0.244156"/>
<line x1="136.85" y1="59.5845" x2="136.85" y2="72.0364" stroke="black" stroke-width="0.244156"/>
<line x1="119.759" y1="59.5845" x2="119.759" y2="72.0364" stroke="black" stroke-width="0.244156"/>
<line x1="122.078" y1="74.1118" x2="134.286" y2="74.1118" stroke="black" stroke-width="0.244156"/>
<line x1="122.287" y1="76.3451" x2="134.372" y2="88.4302" stroke="black" stroke-width="0.244156"/>
<line x1="136.85" y1="76.4314" x2="136.85" y2="88.8833" stroke="black" stroke-width="0.244156"/>
<line x1="119.759" y1="76.4314" x2="119.759" y2="88.8833" stroke="black" stroke-width="0.244156"/>
<line x1="139.377" y1="-7.88881" x2="151.462" y2="4.19629" stroke="black" stroke-width="0.244156"/>
<line x1="139.169" y1="6.7246" x2="151.377" y2="6.7246" stroke="black" stroke-width="0.244156"/>
<line x1="153.94" y1="-7.80249" x2="153.94" y2="4.64946" stroke="black" stroke-width="0.244156"/>
<line x1="136.85" y1="-7.80249" x2="136.85" y2="4.64946" stroke="black" stroke-width="0.244156"/>
<line x1="139.169" y1="6.7246" x2="151.377" y2="6.7246" stroke="black" stroke-width="0.244156"/>
<line x1="139.377" y1="8.95787" x2="151.462" y2="21.043" stroke="black" stroke-width="0.244156"/>
<line x1="139.169" y1="23.5713" x2="151.377" y2="23.5713" stroke="black" stroke-width="0.244156"/>
<line x1="153.94" y1="9.04419" x2="153.94" y2="21.4961" stroke="black" stroke-width="0.244156"/>
<line x1="136.85" y1="9.04419" x2="136.85" y2="21.4961" stroke="black" stroke-width="0.244156"/>
<line x1="139.169" y1="23.5715" x2="151.377" y2="23.5715" stroke="black" stroke-width="0.244156"/>
<line x1="139.377" y1="25.8048" x2="151.462" y2="37.8899" stroke="black" stroke-width="0.244156"/>
<line x1="139.169" y1="40.4182" x2="151.377" y2="40.4182" stroke="black" stroke-width="0.244156"/>
<line x1="153.94" y1="25.8911" x2="153.94" y2="38.3431" stroke="black" stroke-width="0.244156"/>
<line x1="136.85" y1="25.8911" x2="136.85" y2="38.3431" stroke="black" stroke-width="0.244156"/>
<line x1="139.169" y1="40.4182" x2="151.377" y2="40.4182" stroke="black" stroke-width="0.244156"/>
<line x1="139.377" y1="42.6512" x2="151.462" y2="54.7363" stroke="black" stroke-width="0.244156"/>
<line x1="139.169" y1="57.2649" x2="151.377" y2="57.2649" stroke="black" stroke-width="0.244156"/>
<line x1="153.94" y1="42.7375" x2="153.94" y2="55.1895" stroke="black" stroke-width="0.244156"/>
<line x1="136.85" y1="42.7375" x2="136.85" y2="55.1895" stroke="black" stroke-width="0.244156"/>
<line x1="139.169" y1="57.2649" x2="151.377" y2="57.2649" stroke="black" stroke-width="0.244156"/>
<line x1="139.377" y1="59.4982" x2="151.462" y2="71.5833" stroke="black" stroke-width="0.244156"/>
<line x1="139.169" y1="74.1116" x2="151.377" y2="74.1116" stroke="black" stroke-width="0.244156"/>
<line x1="153.94" y1="59.5845" x2="153.94" y2="72.0364" stroke="black" stroke-width="0.244156"/>
<line x1="136.85" y1="59.5845" x2="136.85" y2="72.0364" stroke="black" stroke-width="0.244156"/>
<line x1="139.169" y1="74.1118" x2="151.377" y2="74.1118" stroke="black" stroke-width="0.244156"/>
<line x1="139.377" y1="76.3451" x2="151.462" y2="88.4302" stroke="black" stroke-width="0.244156"/>
<line x1="153.94" y1="76.4314" x2="153.94" y2="88.8833" stroke="black" stroke-width="0.244156"/>
<line x1="136.85" y1="76.4314" x2="136.85" y2="88.8833" stroke="black" stroke-width="0.244156"/>
<line x1="156.468" y1="-7.88881" x2="168.553" y2="4.19629" stroke="black" stroke-width="0.244156"/>
<line x1="156.26" y1="6.7246" x2="168.468" y2="6.7246" stroke="black" stroke-width="0.244156"/>
<line x1="171.031" y1="-7.80249" x2="171.031" y2="4.64946" stroke="black" stroke-width="0.244156"/>
<line x1="153.94" y1="-7.80249" x2="153.94" y2="4.64946" stroke="black" stroke-width="0.244156"/>
<line x1="156.26" y1="6.7246" x2="168.468" y2="6.7246" stroke="black" stroke-width="0.244156"/>
<line x1="156.468" y1="8.95787" x2="168.553" y2="21.043" stroke="black" stroke-width="0.244156"/>
<line x1="156.26" y1="23.5713" x2="168.468" y2="23.5713" stroke="black" stroke-width="0.244156"/>
<line x1="171.031" y1="9.04419" x2="171.031" y2="21.4961" stroke="black" stroke-width="0.244156"/>
<line x1="153.94" y1="9.04419" x2="153.94" y2="21.4961" stroke="black" stroke-width="0.244156"/>
<line x1="156.26" y1="23.5715" x2="168.468" y2="23.5715" stroke="black" stroke-width="0.244156"/>
<line x1="156.468" y1="25.8048" x2="168.553" y2="37.8899" stroke="black" stroke-width="0.244156"/>
<line x1="156.26" y1="40.4182" x2="168.468" y2="40.4182" stroke="black" stroke-width="0.244156"/>
<line x1="171.031" y1="25.8911" x2="171.031" y2="38.3431" stroke="black" stroke-width="0.244156"/>
<line x1="153.94" y1="25.8911" x2="153.94" y2="38.3431" stroke="black" stroke-width="0.244156"/>
<line x1="156.26" y1="40.4182" x2="168.468" y2="40.4182" stroke="black" stroke-width="0.244156"/>
<line x1="156.468" y1="42.6512" x2="168.553" y2="54.7363" stroke="black" stroke-width="0.244156"/>
<line x1="156.26" y1="57.2649" x2="168.468" y2="57.2649" stroke="black" stroke-width="0.244156"/>
<line x1="171.031" y1="42.7375" x2="171.031" y2="55.1895" stroke="black" stroke-width="0.244156"/>
<line x1="153.94" y1="42.7375" x2="153.94" y2="55.1895" stroke="black" stroke-width="0.244156"/>
<line x1="156.26" y1="57.2649" x2="168.468" y2="57.2649" stroke="black" stroke-width="0.244156"/>
<line x1="156.468" y1="59.4982" x2="168.553" y2="71.5833" stroke="black" stroke-width="0.244156"/>
<line x1="156.26" y1="74.1116" x2="168.468" y2="74.1116" stroke="black" stroke-width="0.244156"/>
<line x1="171.031" y1="59.5845" x2="171.031" y2="72.0364" stroke="black" stroke-width="0.244156"/>
<line x1="153.94" y1="59.5845" x2="153.94" y2="72.0364" stroke="black" stroke-width="0.244156"/>
<line x1="156.26" y1="74.1118" x2="168.468" y2="74.1118" stroke="black" stroke-width="0.244156"/>
<line x1="156.468" y1="76.3451" x2="168.553" y2="88.4302" stroke="black" stroke-width="0.244156"/>
<line x1="171.031" y1="76.4314" x2="171.031" y2="88.8833" stroke="black" stroke-width="0.244156"/>
<line x1="153.94" y1="76.4314" x2="153.94" y2="88.8833" stroke="black" stroke-width="0.244156"/>
<line x1="173.559" y1="-7.88881" x2="185.644" y2="4.19629" stroke="black" stroke-width="0.244156"/>
<line x1="173.351" y1="6.7246" x2="185.558" y2="6.7246" stroke="black" stroke-width="0.244156"/>
<line x1="171.031" y1="-7.80249" x2="171.031" y2="4.64946" stroke="black" stroke-width="0.244156"/>
<line x1="173.351" y1="6.7246" x2="185.558" y2="6.7246" stroke="black" stroke-width="0.244156"/>
<line x1="173.559" y1="8.95787" x2="185.644" y2="21.043" stroke="black" stroke-width="0.244156"/>
<line x1="173.351" y1="23.5713" x2="185.558" y2="23.5713" stroke="black" stroke-width="0.244156"/>
<line x1="171.031" y1="9.04419" x2="171.031" y2="21.4961" stroke="black" stroke-width="0.244156"/>
<line x1="173.351" y1="23.5715" x2="185.558" y2="23.5715" stroke="black" stroke-width="0.244156"/>
<line x1="173.559" y1="25.8048" x2="185.644" y2="37.8899" stroke="black" stroke-width="0.244156"/>
<line x1="173.351" y1="40.4182" x2="185.558" y2="40.4182" stroke="black" stroke-width="0.244156"/>
<line x1="171.031" y1="25.8911" x2="171.031" y2="38.3431" stroke="black" stroke-width="0.244156"/>
<line x1="173.351" y1="40.4182" x2="185.558" y2="40.4182" stroke="black" stroke-width="0.244156"/>
<line x1="173.559" y1="42.6512" x2="185.644" y2="54.7363" stroke="black" stroke-width="0.244156"/>
<line x1="173.351" y1="57.2649" x2="185.558" y2="57.2649" stroke="black" stroke-width="0.244156"/>
<line x1="171.031" y1="42.7375" x2="171.031" y2="55.1895" stroke="black" stroke-width="0.244156"/>
<line x1="173.351" y1="57.2649" x2="185.558" y2="57.2649" stroke="black" stroke-width="0.244156"/>
<line x1="173.559" y1="59.4982" x2="185.644" y2="71.5833" stroke="black" stroke-width="0.244156"/>
<line x1="173.351" y1="74.1116" x2="185.558" y2="74.1116" stroke="black" stroke-width="0.244156"/>
<line x1="171.031" y1="59.5845" x2="171.031" y2="72.0364" stroke="black" stroke-width="0.244156"/>
<line x1="173.351" y1="74.1118" x2="185.558" y2="74.1118" stroke="black" stroke-width="0.244156"/>
<line x1="173.559" y1="76.3451" x2="185.644" y2="88.4302" stroke="black" stroke-width="0.244156"/>
<line x1="171.031" y1="76.4314" x2="171.031" y2="88.8833" stroke="black" stroke-width="0.244156"/>
</mask>
<g mask="url(#mask0_4_1806)">
<rect y="-10" width="188" height="168.468" fill="url(#paint0_linear_4_1806)"/>
</g>
<defs>
<linearGradient id="paint0_linear_4_1806" x1="185.803" y1="-9.99998" x2="86.9195" y2="88.8831" gradientUnits="userSpaceOnUse">
<stop stop-color="white"/>
<stop offset="1" stop-color="white" stop-opacity="0"/>
</linearGradient>
</defs>
</svg>
