<svg width="48" height="49" viewBox="0 0 48 49" fill="none" xmlns="http://www.w3.org/2000/svg">
<path d="M44.6423 19.1886C43.8471 18.3575 43.0245 17.5011 42.7144 16.748C42.4275 16.0583 42.4106 14.915 42.3938 13.8076C42.3621 11.7488 42.3284 9.41586 40.7063 7.79375C39.0841 6.17164 36.7512 6.13789 34.6924 6.10625C33.585 6.08938 32.4417 6.0725 31.752 5.78563C31.001 5.47555 30.1425 4.65289 29.3114 3.85766C27.8559 2.45914 26.2022 0.875 24 0.875C21.7978 0.875 20.1462 2.45914 18.6886 3.85766C17.8575 4.65289 17.0011 5.47555 16.248 5.78563C15.5625 6.0725 14.415 6.08938 13.3076 6.10625C11.2488 6.13789 8.91586 6.17164 7.29375 7.79375C5.67164 9.41586 5.64844 11.7488 5.60625 13.8076C5.58938 14.915 5.5725 16.0583 5.28563 16.748C4.97555 17.499 4.15289 18.3575 3.35766 19.1886C1.95914 20.6441 0.375 22.2978 0.375 24.5C0.375 26.7022 1.95914 28.3538 3.35766 29.8114C4.15289 30.6425 4.97555 31.4989 5.28563 32.252C5.5725 32.9417 5.58938 34.085 5.60625 35.1924C5.63789 37.2512 5.67164 39.5841 7.29375 41.2063C8.91586 42.8284 11.2488 42.8621 13.3076 42.8938C14.415 42.9106 15.5583 42.9275 16.248 43.2144C16.999 43.5245 17.8575 44.3471 18.6886 45.1423C20.1441 46.5409 21.7978 48.125 24 48.125C26.2022 48.125 27.8538 46.5409 29.3114 45.1423C30.1425 44.3471 30.9989 43.5245 31.752 43.2144C32.4417 42.9275 33.585 42.9106 34.6924 42.8938C36.7512 42.8621 39.0841 42.8284 40.7063 41.2063C42.3284 39.5841 42.3621 37.2512 42.3938 35.1924C42.4106 34.085 42.4275 32.9417 42.7144 32.252C43.0245 31.501 43.8471 30.6425 44.6423 29.8114C46.0409 28.3559 47.625 26.7022 47.625 24.5C47.625 22.2978 46.0409 20.6462 44.6423 19.1886Z" fill="white"/>
</svg>
