<svg width="161" height="160" viewBox="0 0 161 160" fill="none" xmlns="http://www.w3.org/2000/svg">
<rect width="160" height="160" transform="translate(0.5)" fill="white"/>
<path fill-rule="evenodd" clip-rule="evenodd" d="M110.854 20.0812C85.8022 15.9714 88.3563 57.1109 55.0231 51.4801C20.9289 45.7208 10.7387 86.3495 20.9289 108.791C31.9348 133.03 102.408 146.06 127.62 128.192C155.997 108.082 157.858 27.7924 110.854 20.0812Z" fill="#FFC000"/>
<path fill-rule="evenodd" clip-rule="evenodd" d="M55.217 64.2471C55.217 64.2471 58.0935 70.5191 60.5918 73.4266C64.1372 77.5526 69.1998 80.9802 71.1009 84.1981C75.6183 91.8444 73.6146 95.5846 73.6146 95.5846C73.6146 95.5846 71.2282 87.3419 67.8076 83.316C65.1969 80.2434 60.0691 76.8355 58.3551 74.3121C55.2675 69.7665 53.6725 65.4118 53.6725 65.4118L55.217 64.2471Z" fill="white"/>
<path d="M90.7305 131.004C78.9361 131.555 67.1502 132.286 55.3782 133.196C53.8684 133.345 52.7516 133.367 52.8112 133.528C51.7499 133.46 49.8313 132.883 48.716 133.345C49.5562 133.54 51.1443 134.283 51.2386 135.14C40.1294 135.781 28.9586 135.348 17.9322 133.851C28.7284 134.587 39.5575 134.839 50.3762 134.608C48.9821 133.672 47.1891 133.353 45.5579 133.752C47.6604 132.735 50.0971 132.425 52.3871 132.883C50.6398 130.928 49.4817 128.453 49.1006 125.859C50.8462 127.053 52.2422 128.751 53.0752 130.695C52.9956 127.042 55.5809 123.492 59.0825 122.447C56.8464 125.295 55.6643 128.952 55.8106 132.57C66.9901 131.615 78.1941 130.947 89.4078 130.567C88.8543 130.128 88.4779 129.472 88.3784 128.772C88.9266 128.304 89.7365 128.167 90.4085 128.427C90.9018 124.521 93.6191 120.974 97.2619 119.481C95.2329 121.773 93.8234 124.607 93.2209 127.608C93.8467 127.229 94.6391 127.137 95.335 127.363C95.1367 128.209 94.6403 128.983 93.9534 129.515C107.838 126.342 122.414 131.748 136.518 129.765C129.398 132.068 121.705 130.283 114.262 129.508C103.367 128.427 92.9031 130.567 90.7305 131.004Z" fill="white"/>
<path d="M120.11 46.5487C120.232 45.3866 121.233 44.5155 122.259 43.9565C124.114 42.9453 126.3 42.5507 128.392 42.8489C129.339 42.984 130.062 42.0813 130.738 41.4048C132.495 39.6492 135.18 39.0082 137.631 39.4138C140.081 39.8193 142.301 41.1729 144.09 42.8965C145.878 44.6201 147.274 46.7057 148.566 48.827C148.837 49.272 149.466 49.2838 149.986 49.2583C151.109 49.2033 152.29 49.2343 153.271 49.7835C154.252 50.3328 154.942 51.552 154.545 52.6038C154.359 53.0964 153.964 53.489 153.513 53.7608C152.614 54.303 151.523 54.3964 150.476 54.4763C143.492 55.0096 136.509 55.5428 129.526 56.0761C127.615 56.222 125.674 56.3662 123.798 55.9774C121.921 55.5887 120.084 54.5887 119.123 52.9305C118.163 51.2724 118.323 48.9104 119.797 47.6854C120.108 47.4266 120.068 46.9513 120.11 46.5487" fill="white"/>
<path d="M96.7347 57.2483C98.259 58.9992 106.127 58.3861 106.382 61.5893C105.48 61.8365 104.579 62.0837 103.678 62.331C102.212 62.7329 100.73 63.1416 99.4044 63.8843C98.7823 64.2328 98.0427 64.6636 97.4099 64.3348C94.9633 63.0633 92.1182 62.6682 89.3734 62.9307C86.6286 63.1932 83.9738 64.0875 81.4829 65.27C80.1825 65.8873 78.7171 66.6003 77.3711 66.0899C72.4571 64.2267 66.8511 64.2593 61.959 66.1795C61.0917 66.52 60.1248 66.1421 59.2712 65.7687C58.348 65.3647 57.4247 64.9607 56.5015 64.5567C57.6922 63.1949 62.7824 61.3003 63.8202 59.9823C64.0025 59.7507 70.7993 55.0374 78.2526 57.167C78.5865 57.0103 90.1783 55.0374 96.7347 57.2483Z" fill="white"/>
<path fill-rule="evenodd" clip-rule="evenodd" d="M66.2698 79.5068C61.948 75.3991 56.9586 71.2411 55.7947 65.3933C57.9308 70.8793 62.674 74.8286 66.8341 78.9941C70.9941 83.1597 74.9346 88.3556 74.6775 94.2371C81.4795 92.7522 88.5282 92.4042 95.4434 93.2117C96.1522 90.0194 98.2156 87.3317 99.8347 84.4905C103.848 77.4472 105.205 69.2477 106.495 61.2443C106.821 59.2209 104.344 58.0215 102.357 57.5154C100.374 57.01 98.3902 56.5045 96.4066 55.9991C92.6786 55.0492 88.8163 54.0925 85.0244 54.7421C82.4603 55.1813 79.9282 56.3496 77.3638 55.9122C73.2819 55.2159 68.9512 56.0977 65.4666 58.3347C63.7147 59.4593 62.1579 60.917 60.2457 61.7398C56.2211 63.4714 52.6762 66.3029 50.0979 69.8453C48.7509 62.8776 51.0203 55.7469 53.6737 49.1649C56.6397 41.807 60.363 34.3624 66.7445 29.6495C76.1009 22.7397 88.2996 24.0846 98.0324 30.4531C107.765 36.8215 113.712 47.3233 115.634 58.7947C115.858 60.129 116.016 61.573 115.388 62.7712C114.76 63.9693 114.523 64.6627 113.499 63.7787C112.626 63.0252 111.697 62.2437 110.564 62.0268C109.431 61.8099 108.057 62.3985 107.837 63.5307C106.229 71.8223 104.54 80.3243 100.072 87.4916C98.908 89.3581 97.553 91.1402 96.813 93.2115C96.2467 94.7964 96.0642 96.4884 95.8857 98.1619C95.514 101.649 95.1422 105.136 94.7704 108.623C94.6136 110.093 94.3951 111.694 93.3244 112.713C92.302 113.686 90.7803 113.861 89.3743 113.986C84.8082 114.391 80.2422 114.797 75.6761 115.202C74.8594 115.275 73.9335 115.312 73.3371 114.75C72.8777 114.316 72.7503 113.645 72.6599 113.02C72.0185 108.584 72.0187 104.055 72.6605 99.6185C73.5812 93.2534 70.7328 86.7412 66.2461 82.1334C63.908 79.7321 61.1507 77.7691 58.8164 75.364C56.4821 72.959 54.5284 69.9363 54.3883 66.5876C55.9767 70.9888 58.9037 74.8967 62.6805 77.6588C68.3246 81.7864 72.346 88.075 73.7249 94.93C74.809 89.0669 70.5915 83.6145 66.2698 79.5068Z" fill="white"/>
<path fill-rule="evenodd" clip-rule="evenodd" d="M54.5906 92.9039C53.9057 92.5285 53.6535 91.6863 53.4734 90.9263C52.5899 87.1974 51.9441 83.4122 51.541 79.6014C51.5154 79.3591 51.5036 79.0793 51.6799 78.9111C52.0576 79.3564 52.1243 79.9786 52.1822 80.5596C52.5989 84.7373 53.4064 88.876 54.5906 92.9039Z" fill="#00160A"/>
<path fill-rule="evenodd" clip-rule="evenodd" d="M108.903 80.2018C109.524 78.1262 109.981 76.0018 110.27 73.8547C110.309 73.564 110.419 73.1983 110.711 73.1758C110.882 73.325 110.865 73.5907 110.833 73.8151C110.558 75.7296 110.165 77.6271 109.658 79.4936C109.555 79.8723 109.267 80.348 108.903 80.2018H108.903Z" fill="#00160A"/>
<path fill-rule="evenodd" clip-rule="evenodd" d="M93.0845 130.099C93.4232 129.18 94.0434 128.366 94.8403 127.796C93.9935 127.848 93.1698 128.217 92.5671 128.814C92.8992 126.21 93.7318 123.672 95.0062 121.378C92.6488 123.313 91.1273 126.233 90.8923 129.274C90.3307 128.947 89.6303 128.868 89.0098 129.062C89.5834 129.709 90.1569 130.357 90.7305 131.004C78.9361 131.555 67.1502 132.286 55.3782 133.196C54.7661 129.943 55.562 126.449 57.5227 123.782C54.9353 125.607 53.3381 128.757 53.3949 131.922C52.2413 130.383 51.6665 128.185 49.934 127.306C50.2406 128.814 50.5946 129.153 52.6296 133.048C52.7128 133.208 52.7516 133.367 52.8112 133.528C51.7499 133.46 49.8313 132.883 48.716 133.345C49.5562 133.54 51.1443 134.283 51.2386 135.14C40.1294 135.781 28.9586 135.348 17.9322 133.851C28.7284 134.587 39.5575 134.839 50.3762 134.608C48.9821 133.672 47.1891 133.353 45.5579 133.752C47.6604 132.735 50.0971 132.425 52.3871 132.883C50.6398 130.928 49.4817 128.453 49.1006 125.859C50.8462 127.053 52.2422 128.751 53.0752 130.695C52.9956 127.042 55.5809 123.492 59.0825 122.447C56.8464 125.295 55.6643 128.952 55.8106 132.57C66.9901 131.615 78.1941 130.947 89.4078 130.567C88.8543 130.128 88.4779 129.472 88.3784 128.772C88.9266 128.304 89.7365 128.167 90.4085 128.427C90.9018 124.521 93.6191 120.974 97.2619 119.481C95.2329 121.773 93.8234 124.607 93.2209 127.608C93.8467 127.229 94.6391 127.137 95.335 127.363C95.1367 128.209 94.6403 128.983 93.9534 129.515C107.838 126.342 122.414 131.748 136.518 129.765C129.398 132.068 121.705 130.283 114.262 129.508C107.218 128.775 100.077 128.974 93.0845 130.099Z" fill="#00160A"/>
<path fill-rule="evenodd" clip-rule="evenodd" d="M99.3366 79.3311C99.5067 79.5815 99.4534 79.9161 99.3847 80.211C98.9725 81.9814 98.2458 83.678 97.2487 85.198C96.9713 84.8522 97.2263 84.3514 97.4598 83.9746C98.0811 82.9719 98.5376 81.8674 98.8055 80.7186C98.9191 80.2312 99.0108 79.7111 99.3366 79.3311H99.3366Z" fill="#00160A"/>
<path fill-rule="evenodd" clip-rule="evenodd" d="M96.6787 82.5453C96.4222 82.3239 96.537 81.912 96.6599 81.5963C97.0547 80.5822 97.3201 79.5178 97.4476 78.4371C97.4898 78.0788 97.557 77.6571 97.8802 77.4966C98.0324 77.6341 98.0094 77.8749 97.9742 78.0769C97.7064 79.612 97.4278 81.1789 96.6787 82.5453Z" fill="#00160A"/>
<path fill-rule="evenodd" clip-rule="evenodd" d="M75.3317 88.2671C75.4068 88.1998 75.5238 88.2689 75.5935 88.3419C75.9059 88.669 76.0921 89.1138 76.1059 89.566C75.688 89.3419 75.3817 88.9203 75.2978 88.4537C75.2861 88.3885 75.2824 88.3112 75.3317 88.2671L75.3317 88.2671Z" fill="#00160A"/>
<path fill-rule="evenodd" clip-rule="evenodd" d="M108.221 74.5576C108.11 76.5288 107.66 78.4805 106.897 80.3014C106.877 80.3484 106.856 80.3972 106.817 80.4305C106.704 80.5282 106.513 80.423 106.472 80.279C106.431 80.135 106.489 79.9837 106.544 79.8445C107.083 78.4818 107.44 77.0476 107.603 75.5915C107.652 75.1586 107.789 74.6082 108.221 74.5576L108.221 74.5576Z" fill="#00160A"/>
<path fill-rule="evenodd" clip-rule="evenodd" d="M74.6035 84.8674C73.8701 83.8758 73.2802 82.7783 72.858 81.6194C72.8037 81.4705 72.8368 81.2191 72.9899 81.2604C73.0475 81.2759 73.0818 81.3335 73.11 81.3861C73.7468 82.5735 74.3837 83.761 75.0206 84.9484C74.9882 85.127 74.7114 85.0134 74.6035 84.8674H74.6035Z" fill="#00160A"/>
<path fill-rule="evenodd" clip-rule="evenodd" d="M53.7207 64.2611C53.3838 64.0863 53.3702 63.6166 53.4107 63.2393C54.1645 56.2054 57.5889 49.4905 62.8397 44.75C62.9604 45.6424 62.2716 46.4153 61.6608 47.0769C57.3102 51.7898 54.49 57.8935 53.7207 64.2611Z" fill="#00160A"/>
<path fill-rule="evenodd" clip-rule="evenodd" d="M97.8611 64.2543C97.9571 61.9448 97.571 59.4031 96.7347 57.2482C98.259 58.9991 98.3222 61.5467 98.306 63.8681C100.738 62.4219 103.553 61.6275 106.382 61.5892C105.48 61.8364 104.579 62.0836 103.678 62.3309C102.212 62.7328 100.73 63.1415 99.4044 63.8841C98.7823 64.2327 98.0427 64.6635 97.4099 64.3347C94.9633 63.0632 92.1182 62.6681 89.3734 62.9306C86.6286 63.193 83.9738 64.3007 81.4829 65.4832C80.1825 66.1006 78.7171 66.8135 77.3711 66.3032C72.4571 64.44 66.8511 64.2592 61.959 66.1794C61.0917 66.5199 60.1248 66.142 59.2712 65.7685C58.348 65.3646 57.4247 64.9606 56.5015 64.5566C57.5748 64.7819 60.2398 65.7406 60.2398 65.7406C60.2398 65.7406 61.0075 65.8334 61.2492 65.5385C61.4908 65.2437 61.5671 64.8518 61.6542 64.4806C62.0374 62.8475 62.7824 61.3002 63.8202 59.9822C64.0025 59.7506 64.3929 59.5344 64.5382 59.7909C63.102 61.4555 62.1444 63.5284 61.8079 65.701C67.0424 63.7267 73.0155 63.7891 78.2077 65.8721C78.7038 62.9995 78.719 60.0445 78.2526 57.1669C78.5865 57.0102 78.8317 57.5078 78.8645 57.8752C79.1039 60.5514 79.0609 63.2528 78.7365 65.9201C81.7394 64.4695 84.8535 63.1588 88.1462 62.6298C91.4388 62.1009 94.9533 62.6216 97.8611 64.2543Z" fill="#00160A"/>
<path fill-rule="evenodd" clip-rule="evenodd" d="M59.6954 58.5199C61.2652 54.0275 63.7121 49.8434 66.8579 46.2726C67.0886 46.0108 67.3627 45.7328 67.7115 45.7209C68.0602 45.7091 68.3876 46.1649 68.1415 46.4123C64.5223 50.0509 61.6994 54.4776 59.9268 59.2939C59.6078 59.3023 59.5901 58.8212 59.6954 58.5199H59.6954Z" fill="#00160A"/>
<path fill-rule="evenodd" clip-rule="evenodd" d="M54.736 78.7495C54.7818 78.8055 54.7871 78.8832 54.7907 78.9555C54.9414 81.9474 55.7018 84.871 56.4581 87.7697C56.4904 87.8934 56.3098 87.9829 56.1964 87.9238C56.083 87.8646 56.0334 87.7316 55.9939 87.6099C55.1116 84.8943 54.5485 82.075 54.3198 79.2288C54.3084 79.0869 54.3004 78.9338 54.3759 78.8132C54.4515 78.6925 54.6457 78.6394 54.736 78.7495H54.736Z" fill="#00160A"/>
<path fill-rule="evenodd" clip-rule="evenodd" d="M78.3712 54.4542C78.0562 54.4674 77.9534 54.0391 77.958 53.7239C78.0057 50.4287 78.0534 47.1335 78.1012 43.8382C78.1064 43.4744 78.2049 43.0005 78.5666 42.9604C78.8881 43.3371 78.8813 43.8847 78.8574 44.3793C78.6953 47.7376 78.5332 51.0959 78.3712 54.4542Z" fill="#00160A"/>
<path fill-rule="evenodd" clip-rule="evenodd" d="M108.713 59.497C109.411 58.3633 109.364 56.9368 109.246 55.6106C109.04 53.2876 108.686 50.9777 108.188 48.6994C108.14 48.481 108.112 48.2058 108.296 48.0787C108.448 47.9736 108.67 48.0462 108.789 48.1875C108.908 48.3288 108.95 48.5178 108.986 48.6989C109.558 51.5312 109.818 54.4263 109.761 57.3151C109.739 58.3893 109.563 59.6496 108.62 60.1646C108.439 59.9993 108.584 59.7058 108.713 59.497H108.713Z" fill="#00160A"/>
<path fill-rule="evenodd" clip-rule="evenodd" d="M97.6527 51.8624C97.8897 52.9158 97.7892 54.0424 97.3693 55.0371C97.081 54.7273 97.1621 54.2415 97.212 53.8213C97.4059 52.1889 96.8343 50.5633 96.1314 49.0774C95.4285 47.5914 94.5792 46.1566 94.1567 44.568C94.0931 44.3291 94.1029 43.9829 94.3465 43.9407C94.5524 43.905 94.6927 44.1378 94.7694 44.3321C95.5593 46.3332 96.3492 48.3342 97.139 50.3352C97.3364 50.8353 97.5346 51.3379 97.6527 51.8624Z" fill="#00160A"/>
<path fill-rule="evenodd" clip-rule="evenodd" d="M119.043 45.9085C119.165 44.7464 120.166 43.8754 121.192 43.3163C123.048 42.3052 125.233 41.9106 127.325 42.2088C128.273 42.3438 128.995 41.4411 129.672 40.7647C131.429 39.009 134.114 38.3681 136.564 38.7736C139.014 39.1792 141.235 40.5328 143.023 42.2564C144.811 43.98 146.207 46.0656 147.499 48.1869C147.77 48.6319 148.399 48.6437 148.919 48.6182C150.042 48.5631 151.224 48.5941 152.205 49.1434C153.186 49.6926 153.875 50.9118 153.478 51.9636C153.292 52.4562 152.897 52.8489 152.446 53.1207C151.547 53.6629 150.456 53.7562 149.409 53.8362C142.426 54.3694 135.442 54.9027 128.459 55.4359C126.548 55.5818 124.607 55.726 122.731 55.3373C120.854 54.9486 119.017 53.9485 118.057 52.2904C117.096 50.6322 117.257 48.2702 118.73 47.0452C119.042 46.7864 119.001 46.3112 119.043 45.9085M121.689 43.6768C120.853 44.0752 120.018 44.6618 119.743 45.546C119.645 45.8609 119.625 46.1955 119.534 46.5126C119.297 47.3349 118.617 47.9523 118.258 48.7289C117.51 50.3478 118.363 52.3611 119.789 53.4315C121.216 54.5018 123.064 54.8199 124.843 54.9452C131.246 55.3961 137.613 53.7714 144.031 53.6098C146.551 53.5464 149.152 53.6965 151.51 52.8036C152.403 52.4656 153.383 51.6104 153 50.7363C152.903 50.5155 152.729 50.3384 152.546 50.1812C151.417 49.2104 149.801 48.839 148.361 49.2198C147.627 49.414 147.014 48.6694 146.612 48.0252C144.863 45.2223 142.883 42.4286 140.058 40.7162C137.233 39.0039 133.359 38.6294 130.731 40.6313C129.55 41.5309 128.451 42.9286 126.975 42.772C125.174 42.5811 123.323 42.898 121.689 43.6768Z" fill="#00160A"/>
<path fill-rule="evenodd" clip-rule="evenodd" d="M23.8928 35.4643C23.6571 36.1998 23.9542 36.9914 24.2762 37.6934C24.6505 38.5093 25.2656 39.4297 26.1614 39.3731C28.9278 39.1984 31.6943 39.0237 34.4607 38.849C34.8615 38.8237 35.4129 38.9281 35.4153 39.3297C31.9462 39.6074 28.4771 39.8851 25.0081 40.1628C22.6746 40.3495 20.2346 40.5708 18.2642 41.8349C16.2939 43.099 15.0096 45.7643 16.0724 47.8501C16.4751 48.6404 17.2654 49.3011 18.152 49.2747C20.5415 49.2035 22.9309 49.1323 25.3204 49.0612C25.8771 49.0446 26.6389 49.2203 26.614 49.7767C22.8167 49.5499 18.997 49.7 15.2293 50.2244C13.8766 50.4126 12.4852 50.6665 11.3508 51.427C10.2164 52.1875 9.40134 53.5839 9.71897 54.9122C9.9382 55.829 10.6563 56.5653 11.4868 57.0113C12.3173 57.4572 13.2573 57.6504 14.1869 57.8065C24.0452 59.4618 34.1586 57.5258 44.1287 58.2489C45.2442 58.3298 46.452 58.4864 47.2465 59.2736C38.6449 57.6226 29.7744 59.465 21.0256 59.0511C19.0782 58.959 17.1381 58.7549 15.1993 58.5509C13.6124 58.3839 11.9497 58.1897 10.6406 57.2774C10.0107 56.8384 9.4827 56.2319 9.21921 55.5108C8.56644 53.7243 9.71837 51.6834 11.3416 50.692C12.9648 49.7006 14.9344 49.5043 16.8286 49.332C15.2805 48.2727 14.8202 46.0413 15.49 44.2891C16.1598 42.5369 17.7529 41.2593 19.499 40.5737C21.245 39.888 23.1474 39.7223 25.0212 39.6341C24.4686 38.9103 23.9078 38.1717 23.5989 37.315C23.29 36.4584 23.2672 35.4494 23.7601 34.6837C24.1028 34.1512 24.6525 33.7908 25.201 33.4743C30.4479 30.4468 36.7905 30.0953 42.8463 30.2454C44.4919 30.2862 46.1911 30.3715 47.671 31.0922C49.9668 32.2103 51.3623 34.7954 51.3762 37.3489C51.3901 39.9024 50.1545 42.3663 48.3386 44.1616C48.0469 43.7575 48.4115 43.2203 48.731 42.8378C50.2104 41.0668 51.0509 38.7057 50.7362 36.4197C50.4215 34.1336 48.853 31.9954 46.6666 31.2576C45.7529 30.9493 44.7775 30.8842 43.8144 30.8351C37.5524 30.516 30.9896 30.8438 25.5052 33.8829C24.8301 34.257 24.1282 34.7292 23.8928 35.4643Z" fill="#00160A"/>
<path fill-rule="evenodd" clip-rule="evenodd" d="M66.2698 79.5068C61.948 75.3991 56.9586 71.241 55.7947 65.3933C57.9308 70.8792 62.674 74.8285 66.8341 78.9941C70.9941 83.1597 74.9346 88.3556 74.6775 94.2371C81.4795 92.7522 88.5282 92.4041 95.4434 93.2117C96.1522 90.0193 98.2156 87.3317 99.8347 84.4905C103.848 77.4472 105.205 69.2477 106.495 61.2443C106.821 59.2208 104.344 58.0214 102.357 57.5154C100.374 57.0099 98.3902 56.5045 96.4066 55.999C92.6786 55.0491 88.8163 54.0925 85.0244 54.742C82.4603 55.1812 79.9282 56.3496 77.3638 55.9122C73.2819 55.2158 68.9512 56.0976 65.4666 58.3346C63.7147 59.4592 62.174 60.9874 60.2457 61.7398C56.0704 63.3687 53.6725 65.3416 50.0979 69.8453C48.7509 62.8776 51.0203 55.7469 53.6737 49.1648C56.6397 41.807 60.363 34.3623 66.7445 29.6494C76.1009 22.7397 89.7929 23.4446 99.5258 29.813C109.259 36.1815 115.206 47.3233 117.128 58.7947C117.351 60.1289 117.51 61.573 116.881 62.7711C116.253 63.9693 114.523 64.6626 113.499 63.7787C112.626 63.0252 111.697 62.2437 110.564 62.0268C109.431 61.8098 108.057 62.3985 107.837 63.5307C106.229 71.8223 104.54 80.3243 100.072 87.4916C98.908 89.3581 97.553 91.1401 96.813 93.2114C96.2467 94.7964 96.0642 96.4883 95.8857 98.1619C95.514 101.649 95.1422 105.136 94.7704 108.623C94.6136 110.093 94.3951 111.694 93.3244 112.713C92.302 113.686 90.7803 113.861 89.3743 113.986C84.8082 114.391 80.2422 114.797 75.6761 115.202C74.8594 115.275 73.9335 115.312 73.3371 114.749C72.8777 114.316 72.7503 113.645 72.6599 113.02C72.0185 108.583 72.0187 104.055 72.6605 99.6185C73.5812 93.2534 70.7328 86.7412 66.2461 82.1334C63.908 79.7321 61.1507 77.769 58.8164 75.364C56.4821 72.959 54.5284 69.9362 54.3883 66.5876C55.9767 70.9887 58.9037 74.8967 62.6805 77.6587C68.3246 81.7863 72.346 88.0749 73.7249 94.9299C74.809 89.0669 70.5915 83.6144 66.2698 79.5068ZM75.9632 55.1032C77.7996 55.2825 79.7227 55.739 81.4365 55.0555C86.0517 53.2148 91.4052 53.3121 95.9503 55.3194C97.8901 56.1761 100.074 56.2233 102.163 56.5889C104.251 56.9545 106.456 57.788 107.52 59.6225C108.714 61.6826 112.224 61.1132 113.584 63.068C114.148 63.8786 115.536 63.5697 116.07 62.739C116.604 61.9082 116.532 60.839 116.412 59.8586C115.441 51.8793 112.518 44.0557 107.475 37.7961C102.432 31.5365 95.198 26.9334 87.2611 25.6607C79.3242 24.3881 70.76 26.6378 64.8857 32.1247C61.3301 35.4457 58.864 39.754 56.6971 44.1101C52.9231 51.697 49.8337 59.9798 50.4433 68.4316C52.9763 65.3665 55.7279 62.1506 59.527 60.9769C60.4342 60.6967 61.4283 60.5167 62.1168 59.8628C65.7666 56.3971 70.9539 54.6139 75.9632 55.1032ZM80.0226 107.397C80.0086 109.434 80.3139 111.474 80.9239 113.418C80.9759 113.584 81.0403 113.763 81.1879 113.855C81.3314 113.944 81.5142 113.927 81.6821 113.907C83.7239 113.663 85.7657 113.419 87.8075 113.175C87.8825 113.166 87.966 113.152 88.0109 113.091C88.0574 113.028 88.0432 112.941 88.0269 112.864C87.6593 111.137 87.2918 109.41 86.9242 107.683C86.9035 107.585 86.8801 107.483 86.8115 107.411C86.7272 107.323 86.5963 107.302 86.4752 107.287C84.4695 107.033 82.4436 106.938 80.423 107.004C80.3047 107.008 80.1723 107.019 80.0947 107.108C80.0282 107.185 80.0233 107.295 80.0226 107.397ZM86.5026 100.197C86.4355 100.105 86.3082 100.087 86.1949 100.077C84.1363 99.8948 82.059 99.9247 80.0065 100.166C79.8876 100.18 79.7616 100.197 79.6696 100.274C79.5188 100.399 79.5177 100.626 79.5292 100.822C79.5977 101.985 79.6662 103.148 79.7348 104.31C79.7515 104.594 79.8619 104.969 80.1461 104.955C82.1591 104.854 84.1808 104.927 86.1811 105.175C86.4562 105.209 86.5625 104.829 86.562 104.552C86.5597 103.182 86.5573 101.812 86.555 100.441C86.5548 100.357 86.5527 100.265 86.5026 100.197ZM73.7413 108.097C73.586 108.167 73.427 108.246 73.3217 108.38C73.1541 108.594 73.1612 108.892 73.1762 109.163C73.2289 110.115 73.2817 111.066 73.3344 112.018C73.3611 112.5 73.3893 112.989 73.5526 113.443C73.7158 113.897 74.0363 114.318 74.4885 114.486C74.861 114.624 75.2734 114.578 75.6678 114.53C76.4142 114.438 77.1607 114.346 77.9071 114.254C78.2136 114.217 78.531 114.175 78.7933 114.012C78.0937 111.888 77.6288 109.686 77.4097 107.459C77.3944 107.303 77.1848 107.267 77.0284 107.277C75.8952 107.348 74.7753 107.628 73.7413 108.097ZM93.8254 105.548C94.0464 104.182 94.2675 102.817 94.4885 101.451C94.5079 101.331 94.5242 101.197 94.4539 101.098C94.3825 100.998 94.248 100.971 94.1265 100.951C92.5083 100.691 90.886 100.457 89.2604 100.248C89.1385 100.232 88.9904 100.227 88.92 100.328C88.8781 100.388 88.8795 100.467 88.8825 100.541C88.9413 101.965 89.0001 103.389 89.0589 104.813C89.0642 104.943 89.0764 105.088 89.1738 105.175C89.2424 105.236 89.3384 105.253 89.429 105.267C90.7937 105.488 92.1583 105.708 93.5229 105.928C93.7016 105.957 93.7965 105.727 93.8254 105.548ZM79.6395 97.4905C79.6102 97.6478 79.6002 97.8492 79.7403 97.9265C79.8075 97.9636 79.8892 97.9573 79.9656 97.9499C82.1055 97.7444 84.2453 97.5389 86.3852 97.3333C86.4956 97.3227 86.6121 97.3099 86.7011 97.2437C86.8223 97.1536 86.8594 96.9913 86.888 96.843C87.0624 95.9405 87.2369 95.038 87.4113 94.1355C87.4361 94.0072 87.4513 93.8506 87.3493 93.769C87.2781 93.7119 87.1772 93.7167 87.0863 93.7243C85.0349 93.896 82.9836 94.0677 80.9323 94.2394C80.7648 94.2534 80.5898 94.2699 80.4481 94.3602C80.2082 94.5132 80.1357 94.8244 80.0837 95.1041C79.9356 95.8996 79.7876 96.695 79.6395 97.4905ZM89.2804 94.5221C89.2003 95.3045 89.1201 96.0869 89.04 96.8694C89.0268 96.9982 89.0153 97.1364 89.0781 97.2497C89.1708 97.4171 89.3846 97.4658 89.5732 97.4975C91.2902 97.7867 93.0073 98.0759 94.7243 98.3651C94.7955 98.3771 94.8713 98.3886 94.9377 98.3602C95.0642 98.3059 95.0923 98.1421 95.1016 98.0048C95.1699 96.995 95.1852 95.9817 95.1475 94.9704C95.141 94.7962 95.1318 94.6173 95.0609 94.458C94.8456 93.9746 94.2053 93.8943 93.6762 93.8836C92.4367 93.8583 91.1972 93.8331 89.9578 93.8079C89.8293 93.8053 89.6946 93.8041 89.5808 93.8637C89.3576 93.9806 89.3061 94.2715 89.2804 94.5221ZM107.559 61.2404C106.673 62.3955 106.43 63.9033 106.205 65.3416C105.067 72.6168 103.591 80.0605 99.5879 86.2411C98.2165 88.3584 96.5072 90.4488 96.3133 92.964C97.0686 90.3457 99.1599 88.364 100.596 86.0477C101.649 84.3483 102.352 82.458 102.996 80.5651C104.55 75.9957 105.801 71.3234 106.738 66.5889C107.075 64.8867 107.407 63.0962 108.503 61.751C108.131 61.7473 107.766 61.5498 107.559 61.2404ZM76.8403 105.226C76.9594 105.195 77.0868 105.159 77.1642 105.063C77.2471 104.961 77.2508 104.817 77.2507 104.685C77.2491 103.43 77.2476 102.174 77.246 100.919C77.2459 100.829 77.2431 100.73 77.1859 100.66C77.1037 100.56 76.9516 100.564 76.8225 100.578C75.8263 100.687 74.8396 100.883 73.8774 101.163C73.7645 101.196 73.6463 101.233 73.5662 101.319C73.4741 101.418 73.4504 101.561 73.4319 101.695C73.2449 103.05 73.1703 104.421 73.2089 105.789C73.212 105.901 73.2284 106.033 73.3274 106.084C73.3959 106.12 73.4788 106.101 73.5535 106.082C74.6491 105.796 75.7447 105.511 76.8403 105.226ZM92.8867 111.99C93.6123 111.117 93.6187 109.873 93.5888 108.739C93.583 108.518 93.3233 108.408 93.1088 108.356C91.9623 108.073 90.7976 107.864 89.6243 107.731C89.5216 107.719 89.409 107.71 89.3234 107.768C89.1927 107.857 89.1939 108.046 89.211 108.203C89.3699 109.668 89.674 111.116 90.1172 112.521C90.1687 112.684 90.2364 112.863 90.3909 112.937C90.4741 112.976 90.5699 112.977 90.662 112.975C91.4976 112.951 92.3521 112.632 92.8867 111.99ZM75.3556 95.1013C75.0706 95.1832 74.7798 95.2794 74.5554 95.4733C74.3424 95.6574 74.2069 95.9149 74.1015 96.1759C73.7665 97.005 73.6903 97.9122 73.6179 98.8035C73.6123 98.8716 73.6087 98.9467 73.6503 99.0009C73.7126 99.0822 73.8361 99.0714 73.9368 99.0525C74.8052 98.8897 75.6736 98.7269 76.542 98.5641C76.7893 98.5177 77.063 98.4547 77.2033 98.2458C77.2988 98.1038 77.3106 97.9235 77.3195 97.7526C77.3726 96.7267 77.4258 95.7007 77.4789 94.6747C76.7611 94.7587 76.0502 94.9015 75.3556 95.1013ZM80.2308 99.4946C82.1273 99.2892 84.0432 99.264 85.9445 99.4193C86.1601 99.4369 86.397 99.4513 86.5717 99.3236C86.8452 99.1235 86.8083 98.7116 86.7429 98.3791C86.7258 98.2923 86.7062 98.2005 86.6455 98.1362C86.5486 98.0337 86.3871 98.038 86.2466 98.0498C84.3486 98.2089 82.4506 98.3681 80.5526 98.5273C80.2907 98.5492 80.0113 98.578 79.808 98.7445C79.6047 98.911 79.5388 99.2679 79.7483 99.4265C79.8811 99.5271 80.0652 99.5125 80.2308 99.4946ZM94.6807 99.3437C94.4526 99.1105 94.1093 99.0422 93.7882 98.9851C92.3678 98.7328 90.9475 98.4804 89.5271 98.2281C89.3418 98.1951 89.1141 98.1778 89.0026 98.3295C88.954 98.3957 88.9405 98.4804 88.9283 98.5616C88.8679 98.9657 88.9178 99.5284 89.3228 99.5817C90.9374 99.7945 92.5519 100.007 94.1664 100.22C94.3265 100.241 94.4985 100.26 94.6415 100.185C94.9303 100.034 94.9087 99.5769 94.6807 99.3437ZM78.3179 107.357C78.2217 107.621 78.2699 107.913 78.3199 108.19C78.6259 109.882 78.9585 111.57 79.3391 113.247C79.3904 113.473 79.4472 113.708 79.5973 113.885C79.7475 114.061 80.0214 114.155 80.2171 114.031C80.5113 113.845 80.4027 113.399 80.2762 113.075C79.6229 111.4 79.4373 109.581 79.3471 107.785C79.3313 107.47 79.2705 107.085 78.9742 106.976C78.7102 106.879 78.4141 107.093 78.3179 107.357ZM93.4492 107.669C93.7931 107.538 93.5553 106.951 93.8012 106.677C92.3734 106.321 90.9177 106.077 89.4518 105.947C89.1061 105.917 88.9458 106.438 89.1517 106.717C89.3575 106.997 89.7339 107.076 90.0759 107.136C90.3842 107.189 90.6924 107.242 91.0007 107.295C91.7244 107.421 92.4481 107.546 93.1718 107.671C93.2641 107.687 93.3617 107.702 93.4492 107.669ZM80.5672 106.386C82.3392 106.282 84.1212 106.348 85.8805 106.584C86.2319 106.631 86.7195 106.59 86.7666 106.239C86.8153 105.875 86.3251 105.715 85.9587 105.697C84.1783 105.608 82.3942 105.596 80.6127 105.66C80.2972 105.671 79.8646 105.831 79.9479 106.136C80.0118 106.369 80.3256 106.4 80.5672 106.386ZM87.3706 100.412C87.2874 100.585 87.2851 100.785 87.2845 100.977C87.2806 102.063 87.2767 103.148 87.2729 104.233C87.272 104.474 87.273 104.724 87.3742 104.942C87.4753 105.161 87.7071 105.338 87.9441 105.297C88.3373 105.227 88.4101 104.7 88.3883 104.302C88.3252 103.147 88.2622 101.992 88.1991 100.838C88.1836 100.554 88.1095 100.197 87.831 100.139C87.6427 100.099 87.4537 100.238 87.3706 100.412ZM88.5814 107.921C88.5027 107.694 88.3207 107.485 88.0826 107.452C87.8445 107.419 87.5817 107.633 87.6275 107.869C87.9066 109.306 88.1856 110.743 88.4647 112.18C88.53 112.517 88.6202 112.891 88.9105 113.074C89.2009 113.256 89.7056 113.012 89.5969 112.686C89.1562 111.367 88.7121 110.025 88.6653 108.634C88.6572 108.394 88.6602 108.148 88.5814 107.921ZM78.8687 104.855C78.9983 104.624 78.988 104.342 78.9742 104.078C78.926 103.153 78.8779 102.229 78.8297 101.304C78.8147 101.017 78.7897 100.705 78.5955 100.493C78.4012 100.281 77.9752 100.279 77.8818 100.551C77.857 100.623 77.8595 100.702 77.8622 100.778C77.9063 102.015 77.9503 103.252 77.9944 104.488C78.0021 104.703 78.0254 104.948 78.1993 105.074C78.4143 105.229 78.7392 105.087 78.8687 104.855ZM78.2038 94.7385C77.9581 95.078 77.9471 95.5278 77.9455 95.9468C77.9434 96.5242 77.9413 97.1016 77.9391 97.679C77.938 97.9885 78.0513 98.4112 78.3594 98.3812C78.6004 98.3577 78.6967 98.0631 78.7368 97.8244C78.9169 96.7524 79.0969 95.6804 79.277 94.6084C79.0244 94.274 78.4495 94.3991 78.2038 94.7385ZM76.5136 106.782C76.7672 106.759 77.0499 106.738 77.2211 106.549C77.3924 106.361 77.2854 105.959 77.0331 105.994C76.2545 106.1 75.4759 106.207 74.6973 106.314C74.2935 106.369 73.8649 106.435 73.5572 106.703C73.2496 106.97 73.1479 107.513 73.4627 107.772C74.3882 107.219 75.4396 106.878 76.5136 106.782ZM73.6752 99.8102C73.4426 100.032 73.4008 100.478 73.676 100.643C74.5674 100.346 75.4907 100.144 76.4249 100.042C76.655 100.017 76.8993 99.9926 77.0837 99.8527C77.2681 99.7127 77.3494 99.4103 77.1826 99.2498C77.0509 99.1232 76.8416 99.1418 76.661 99.1689C75.9624 99.2736 75.2638 99.3783 74.5651 99.483C74.2473 99.5307 73.9079 99.5885 73.6752 99.8102ZM88.2386 93.8441C88.1564 93.9318 88.1315 94.0571 88.11 94.1754C87.9459 95.0778 87.7818 95.9803 87.6178 96.8827C87.5881 97.0458 87.5698 97.2429 87.697 97.3492C87.827 97.4577 88.039 97.391 88.1415 97.2562C88.2441 97.1215 88.2665 96.9441 88.2854 96.7759C88.3871 95.8712 88.4888 94.9666 88.5905 94.0619C88.5996 93.9806 88.6063 93.8899 88.5556 93.8257C88.4811 93.7313 88.3208 93.7565 88.2386 93.8441ZM87.9319 105.796C87.5906 105.754 87.2595 106.191 87.4724 106.461C87.6213 106.65 87.796 106.842 88.031 106.894C88.266 106.945 88.5581 106.774 88.5356 106.535C88.5033 106.192 88.2733 105.838 87.9319 105.796ZM88.067 98.8685C88.182 98.592 88.2096 98.1497 87.9122 98.1151C87.796 98.1016 87.6859 98.173 87.6061 98.2586C87.2356 98.6565 87.427 99.4163 87.9418 99.5912C88.107 99.4007 88.1652 99.1231 88.0904 98.8824C88.0085 98.619 87.961 99.1231 88.067 98.8685ZM78.8501 99.3749C78.7807 99.1201 78.5693 98.8806 78.3053 98.878C77.9631 98.8746 77.7392 99.3604 77.964 99.6183C78.1889 99.8763 78.7007 99.7208 78.744 99.3814C78.7824 99.0807 78.9297 99.6673 78.8501 99.3749ZM79.0588 106.376C79.14 106.307 79.1983 106.211 79.2225 106.107C78.9973 105.856 78.6026 105.774 78.2961 105.916C78.2281 105.947 78.1625 105.991 78.1239 106.055C78.0135 106.238 78.1966 106.485 78.4078 106.52C78.6191 106.555 78.826 106.452 79.0154 106.352L79.0588 106.376Z" fill="#00160A"/>
</svg>
