<svg width="160" height="160" viewBox="0 0 160 160" fill="none" xmlns="http://www.w3.org/2000/svg">
<path fill-rule="evenodd" clip-rule="evenodd" d="M43.6169 141.111C43.4049 141.239 43.1319 141.197 42.9689 141.01C41.9899 140.153 40.8849 139.461 39.8799 138.636C39.3419 138.189 38.7689 137.787 38.1659 137.433C37.7249 137.179 37.3939 136.782 36.9719 136.492L36.8539 136.416C36.3379 136.1 35.9189 135.645 35.4199 135.29C34.9999 134.992 34.6979 134.548 34.2769 134.228C33.6699 133.755 33.0869 133.252 32.5309 132.72C32.1329 132.423 31.7929 132.055 31.5269 131.635C31.4669 131.516 31.3579 131.49 31.2789 131.416C30.9279 131.108 30.5969 130.78 30.2859 130.432C29.6499 129.677 28.9409 128.984 28.3169 128.221C27.8649 127.667 27.3809 127.143 26.9129 126.604C26.4629 126.085 26.0229 125.557 25.5939 125.02C24.5839 123.767 23.6479 122.455 22.7909 121.093C22.1329 120.018 21.5369 118.907 21.0049 117.765C20.5359 116.857 20.1279 115.918 19.7839 114.956C19.5339 114.179 19.1709 113.434 18.9949 112.648C18.8299 111.907 18.6229 111.171 18.4409 110.44C18.0179 108.746 17.6639 107.04 17.3779 105.323C17.2089 104.313 17.0609 103.292 16.8759 102.287C16.6599 101.109 16.5789 99.9144 16.3659 98.736C16.2419 98.0455 16.2049 97.3147 16.1239 96.6063C16.0449 95.9205 16.0629 95.2278 15.9409 94.5471C15.8429 93.8641 15.7799 93.1767 15.7519 92.4873C15.7049 91.8475 15.5059 91.1747 15.7169 90.5185C15.3859 90.059 15.6129 89.5269 15.5599 89.0343C15.5059 88.5418 15.4849 88.0404 15.4039 87.5613C15.3189 87.0676 15.2469 86.5621 15.1769 86.0715C15.0349 85.0753 14.7989 84.0985 14.6569 83.1084C14.5689 82.5043 14.3059 81.9704 14.1689 81.3904C13.9009 80.2809 13.5229 79.2009 13.0409 78.1664C12.8399 77.7547 12.7019 77.3147 12.6319 76.8616C12.5879 76.5165 12.2659 76.3696 12.1709 76.0552C12.0179 75.5462 11.7789 75.0635 11.5869 74.5668C11.5529 74.398 11.4299 74.2607 11.2659 74.2076L11.3979 73.7713C11.3279 73.5935 11.2559 73.8046 11.1599 73.7482C11.0619 73.5516 10.9049 73.3646 10.9329 73.0966C10.9599 72.8447 10.6739 72.7701 10.6129 72.5356C10.4789 72.026 9.91589 71.679 10.0339 71.0622C9.64689 70.712 9.51589 70.2045 9.25189 69.7781C9.11389 69.5787 9.05089 69.3372 9.07289 69.0965L9.07989 69.041C9.12289 68.8056 8.65989 68.7784 8.83889 68.4781C8.23489 67.8321 8.20489 66.9452 7.96189 66.1721C7.57289 64.9315 7.08689 63.7137 6.90589 62.3984C6.81589 61.7406 6.53089 61.0831 6.42589 60.4146C6.18989 58.9118 5.84989 57.4227 5.79489 55.8913C5.77189 55.2587 5.60789 54.6311 5.59089 53.9978L5.57189 53.2659C5.54489 52.1679 5.52889 51.0694 5.58389 49.9712C5.55689 49.7166 5.60288 49.4597 5.71488 49.2295C5.87988 48.9742 5.60189 48.7431 5.62589 48.462C5.65289 48.1283 5.83889 47.8405 5.80589 47.4754C5.78789 47.2742 5.89489 46.9749 5.87389 46.7416C5.80789 45.9829 6.18489 45.2791 6.10089 44.5224C6.11689 44.2384 6.19589 43.9616 6.33189 43.7119C6.63389 42.8519 6.52689 41.9002 6.94589 41.0823C7.14589 40.6777 7.24889 40.2327 7.24689 39.7823L7.24389 39.6082C7.24189 39.4793 7.24789 39.3551 7.32389 39.282C7.64189 38.9764 7.63189 38.5447 7.76389 38.1764C7.90589 37.7819 7.90889 37.3428 8.10489 36.95C8.34389 36.5737 8.51389 36.158 8.60689 35.7223C8.67589 34.9675 9.04389 34.344 9.31889 33.6805C9.45589 33.3489 9.46489 32.9276 9.88989 32.7377C10.1059 32.6412 9.69489 32.3076 10.0049 32.1651L10.0409 32.1506C10.2629 32.0718 10.2869 31.8856 10.2689 31.6543C10.2529 31.4429 10.6299 31.3653 10.5659 31.1406C10.5009 30.9159 10.5089 30.6066 10.6329 30.5893C10.9449 30.5444 10.7019 30.1705 10.9599 30.1533C10.9869 30.1443 11.0079 30.1235 11.0169 30.097C11.2379 29.3349 11.8499 28.7852 12.1109 28.0305C12.2859 27.5833 12.5439 27.1733 12.8719 26.822C13.1529 26.4767 13.4039 26.1086 13.6239 25.7217C14.0239 25.0762 14.5999 24.5799 14.9889 23.936C15.0939 23.7618 15.5669 23.9097 15.3889 23.4825C15.6889 23.4325 15.6539 23.1246 15.7999 22.9618C15.9489 22.8457 16.1159 22.7533 16.2929 22.6879C16.4699 22.295 16.7369 21.9492 17.0719 21.6787C17.6849 21.0507 18.3379 20.462 19.0249 19.9163L19.5919 19.4686C20.3509 18.8718 21.1259 18.294 22.0469 17.9528C22.2829 17.8651 22.2279 17.6097 22.4269 17.5118C23.5829 16.9357 24.6769 16.2436 25.9419 15.8756C26.4709 15.7212 26.9639 15.3683 27.5059 15.2061C28.5929 14.8801 29.6279 14.4102 30.7779 14.2392C31.4589 14.1383 32.1489 13.9252 32.8429 13.8045C34.2759 13.5134 35.7389 13.3959 37.2009 13.4546L38.0989 13.5122C38.8969 13.5635 39.6949 13.6218 40.4889 13.7395C40.8649 13.7953 41.2029 13.9774 41.5529 13.9949C41.8939 14.0116 42.2279 14.0986 42.5339 14.2507C42.7759 14.367 43.0299 14.1854 43.2839 14.3518C43.4709 14.521 43.7289 14.5868 43.9729 14.5304L44.0219 14.5175C44.1649 14.465 44.3959 14.6497 44.5869 14.7295C44.8689 14.8208 45.1399 14.9412 45.3969 15.0888C45.5929 15.2248 45.9199 14.9561 46.0079 15.3187C46.3139 15.1571 46.5429 15.3816 46.7929 15.4793L46.8279 15.4918C47.0799 15.5768 47.3199 15.6962 47.5659 15.8005L48.3849 16.148C48.6129 16.2856 48.8619 16.3858 49.1229 16.4451C49.6069 16.4734 49.9899 16.7707 50.4569 16.8611C50.9719 17.0012 51.4679 17.2045 51.9329 17.4665C52.3529 17.6667 52.8349 17.569 53.2539 17.8144C53.6469 18.0823 54.0919 18.2654 54.5599 18.3522C55.0399 18.3996 55.4409 18.7078 55.8699 18.734L55.9499 18.7355C56.4989 18.7241 56.8669 19.1157 57.3459 19.1683C58.3889 19.2829 59.3609 19.7251 60.3829 19.8595C61.6719 20.0289 62.9319 20.3575 64.2359 20.465C65.0839 20.535 65.9379 20.5781 66.7859 20.6484C67.6359 20.6856 68.4879 20.6506 69.3319 20.5436C70.3899 20.4384 71.4369 20.2481 72.4629 19.9744C73.4999 19.7107 74.4849 19.2928 75.5129 19.014C75.9819 18.8868 76.4159 18.6762 76.8929 18.5624C77.4049 18.4398 77.8709 18.117 78.3839 17.9925C79.6689 17.6809 80.8469 17.0242 82.1719 16.8558C83.6989 16.1895 85.3689 16.0732 86.9549 15.626C87.6919 15.4173 88.4819 15.4021 89.2519 15.3068L89.4169 15.2851C90.7809 15.0949 92.1549 15.043 93.5289 14.9782C94.7899 14.9289 96.0519 14.9627 97.3079 15.0793C98.2129 15.1557 99.1139 15.2759 100.019 15.3353C100.386 15.3596 100.695 15.6761 101.085 15.5199C101.839 15.8753 102.717 15.7599 103.463 16.143C104.016 16.08 104.475 16.36 104.933 16.5876C105.282 16.762 105.669 16.5961 106.013 16.8228C106.321 17.0595 106.685 17.2109 107.07 17.2616C107.721 17.2761 108.232 17.6063 108.788 17.8313C110.079 18.3541 111.362 18.8993 112.635 19.4669C113.052 19.6531 113.55 19.6974 113.865 20.0975C114.141 20.4486 114.691 20.356 114.952 20.7592C115.047 20.906 115.24 20.6882 115.401 20.8147C115.713 21.0615 116.179 21.0171 116.443 21.4094C116.638 21.6997 117.119 21.6114 117.331 21.9577L117.358 22.0077C117.476 22.2526 117.979 21.8129 118.015 22.3185C118.501 22.4433 118.862 22.7843 119.268 23.046C119.605 23.2623 120.049 23.252 120.321 23.6269C120.553 23.9464 121.116 23.8407 121.287 24.2884C121.878 24.3977 122.237 24.9188 122.781 25.1351C123.189 25.3233 123.571 25.5655 123.915 25.8551C124.468 26.2754 125.033 26.6793 125.605 27.0687C125.81 27.2119 126.007 27.3664 126.195 27.5314C126.3 27.6213 126.302 27.7793 126.464 27.8462C127.488 28.2708 128.275 29.0514 129.09 29.7565C129.562 30.117 130.004 30.5146 130.413 30.9454L130.548 31.0902C130.664 31.2329 130.939 31.3416 131.031 31.5277C131.287 32.0456 131.752 32.3588 132.16 32.7147L132.228 32.7745C132.459 32.9719 132.66 33.2018 132.824 33.457C132.855 33.5056 132.855 33.599 132.894 33.6163C133.62 33.9378 133.962 34.6453 134.464 35.1865C134.951 35.7098 135.34 36.3235 135.838 36.8327C136.843 37.8594 146.98 53.9472 147.983 56.5922L148.27 57.3491C148.557 58.1072 148.838 58.8695 149.084 59.6398L149.294 60.2957C149.503 60.9526 149.707 61.6131 149.873 62.2777L150.095 63.165C150.537 64.9403 150.962 66.721 151.273 68.5281C151.55 70.1404 151.729 71.761 151.913 73.3837C152.03 74.4255 152.1 75.4638 152.131 76.5095C152.179 78.1807 152.19 79.8521 152.164 81.5237C152.137 83.0972 151.773 84.6345 151.831 86.2049C151.454 87.0968 151.679 88.1088 151.273 88.9944C151.372 89.4844 151.13 89.9323 151.033 90.381C150.933 90.8443 150.952 91.3514 150.682 91.7913C150.559 91.991 150.711 92.2838 150.558 92.5272C150.402 92.7247 150.343 92.9815 150.396 93.2272C150.055 93.317 150.392 93.6076 150.224 93.7919C150.043 93.992 149.933 94.2468 149.913 94.516C149.901 95.1244 149.464 95.6112 149.429 96.1567C149.395 96.7148 149.044 97.131 148.958 97.6216L148.945 97.7145C148.878 98.3664 148.333 98.7701 148.211 99.3764C148.2 99.4295 148.065 99.4565 147.987 99.4973C147.985 99.6382 148.142 99.6338 148.23 99.7592C148.033 99.8779 147.853 100.023 147.695 100.191C147.555 100.435 147.441 100.693 147.354 100.961L147.69 101.6C147.473 101.894 147.477 102.196 147.218 102.411C147.105 102.505 147.098 102.851 147.045 103.082C146.976 103.385 146.552 103.498 146.604 103.756C146.628 104.046 146.553 104.336 146.39 104.578C145.392 106.957 144.384 109.332 143.366 111.702C143.258 111.956 143.253 112.299 142.9 112.397C143.191 112.828 142.609 112.858 142.549 113.148C142.456 113.412 142.305 113.653 142.108 113.853C141.811 114.24 141.697 114.764 141.486 115.222C141.393 115.555 141.207 115.855 140.951 116.088C140.695 116.275 140.657 116.672 140.438 116.959C140.141 117.3 139.889 117.679 139.692 118.086C139.601 118.388 139.427 118.658 139.19 118.865C138.983 119.025 139.055 119.446 138.694 119.531C138.503 120.068 138.094 120.455 137.764 120.897L137.703 120.981C136.882 122.125 135.993 123.218 135.041 124.255C134.248 125.129 133.47 126.016 132.668 126.883C132.408 127.162 132.135 127.438 131.857 127.698C130.881 128.661 129.852 129.57 128.776 130.42C127.8 131.148 126.856 131.921 125.845 132.608C125.308 132.973 124.836 133.455 124.307 133.851C123.06 134.785 121.79 135.683 120.475 136.517C119.35 137.295 118.153 137.963 116.9 138.511C116.562 138.643 116.263 138.871 115.932 139.025C115.54 139.159 115.158 139.321 114.789 139.509C114.347 139.799 113.841 139.944 113.4 140.208C113.058 140.412 112.608 140.182 112.314 140.606C112.099 140.915 111.54 140.69 111.276 141.048C110.737 140.971 110.395 141.447 109.878 141.532L109.81 141.541C109.272 141.59 108.762 141.928 108.239 142.139C107.729 142.381 107.203 142.588 106.665 142.759C105.667 143.014 104.756 143.508 103.776 143.78C102.842 144.038 101.961 144.502 100.981 144.565C100.749 144.58 100.756 144.783 100.588 144.84C100.414 144.899 100.25 144.811 100.088 144.886C99.4249 145.17 98.7409 145.4 98.0409 145.574C97.0569 145.855 96.0629 146.108 95.0839 146.395C93.5629 146.816 92.0219 147.156 90.4649 147.415C89.4539 147.6 88.4359 147.749 87.4209 147.908L86.0059 148.131C85.2989 148.242 84.5909 148.351 83.8819 148.446C82.9799 148.567 82.0709 148.628 81.1679 148.738C80.4539 148.825 79.7399 148.941 79.0289 149.058C78.0449 149.219 77.0529 149.345 76.0709 149.499C74.6789 149.711 73.2769 149.844 71.8699 149.899C71.1579 149.947 70.4439 149.95 69.7319 149.908C69.3349 149.873 68.9359 149.864 68.5379 149.879L68.3399 149.889C67.4139 149.952 66.5289 149.764 65.6259 149.687C65.3489 149.662 65.0929 149.578 64.8329 149.528L64.7209 149.508C64.4979 149.475 64.2829 149.425 64.0649 149.378L63.9019 149.343C63.1299 149.187 62.3849 148.895 61.5929 148.839L61.4439 148.832C61.3869 148.831 61.3309 148.818 61.2809 148.792C60.5069 148.355 59.5969 148.322 58.7939 147.953L58.6539 147.885C57.9099 147.498 57.0159 147.503 56.2829 147.06C55.7219 147.151 55.3049 146.729 54.8049 146.638C53.5149 146.404 52.3849 145.765 51.1969 145.277L51.0419 145.214C49.8009 144.723 48.5839 144.174 47.3539 143.658C46.5119 143.244 45.7039 142.762 44.9409 142.217C44.7809 142.065 44.6019 141.935 44.4089 141.829C44.0549 141.712 43.7669 141.451 43.6169 141.111Z" fill="#FFC000"/>
<path fill-rule="evenodd" clip-rule="evenodd" d="M61.084 71.6136C60.215 75.1819 58.051 77.9641 54.693 80.2153C55.551 77.7273 56.66 74.8161 57.518 72.3281C56.691 74.0254 55.201 75.6902 53.542 76.5951C54.587 72.8504 56.778 69.873 56.778 65.1266C56.778 63.4199 54.928 62.1016 55 61.4075C55.073 60.7053 55.448 60.0772 55.738 59.4338C57.366 55.8335 61.669 73.09 61.084 71.6136Z" fill="white"/>
<path fill-rule="evenodd" clip-rule="evenodd" d="M125.199 39.2469C125.161 39.2431 125.124 39.2386 125.087 39.2335C125.131 39.1814 125.168 39.1849 125.199 39.2469ZM100.668 89.3115C100.514 89.4437 100.361 89.5754 100.207 89.7066C100.081 89.7066 99.5759 88.85 98.8739 87.6591C98.2269 86.5621 97.4129 85.1814 96.5739 83.9252C95.8399 82.8277 95.0379 81.8385 94.4619 81.129C93.9389 80.484 93.6039 80.0703 93.6779 80.0168C95.2979 78.8511 96.9859 77.7684 98.6729 76.6865C101.399 74.9388 104.122 73.1931 106.546 71.1026C113.02 65.5196 117.526 58.5066 120.223 52.4889C122.499 47.4127 123.726 43.4008 124.411 41.163C124.747 40.063 124.953 39.3918 125.087 39.2335C123.672 39.0391 122.414 37.9492 122.032 36.5706C121.64 35.1558 122.196 33.5276 123.371 32.6471C124.684 31.6627 125.112 29.8924 125.243 28.2565C125.27 27.9193 125.289 27.579 125.308 27.2383C125.381 25.9259 125.455 24.6059 125.996 23.4207C126.208 22.9572 126.572 22.4743 127.082 22.4629C127.895 22.4445 128.187 23.5199 128.22 24.3327L128.365 27.9764C128.709 27.3659 129.716 27.5176 130.128 28.0839C130.54 28.6503 130.531 29.4093 130.504 30.1091C130.696 28.5559 131.316 27.0578 132.28 25.8242C132.582 25.437 133.037 25.0393 133.505 25.1876C134 25.3443 134.122 25.9791 134.139 26.498C134.288 31.0001 132.94 35.5388 130.358 39.2306C129.86 39.943 129.59 40.7682 129.412 41.6248C129.478 42.2252 129.508 42.8726 129.435 43.4128C128.603 49.5747 127.219 55.6621 125.307 61.5786C124.169 65.0986 122.81 68.6183 120.527 71.5294C119.323 73.0646 117.886 74.3988 116.449 75.7186C112.045 79.7634 106.694 84.3423 101.959 88.3951C101.317 88.9441 100.687 89.4834 100.072 90.0105C100.039 90.0105 100.254 89.7671 100.668 89.3115Z" fill="white"/>
<path d="M49.9341 115.811C50.3331 116.946 51.3361 118.396 51.3361 118.396C51.3361 118.396 44.3551 128.26 41.6951 133.895C39.2231 139.133 36.7271 151.259 29.0691 143.979C32.7171 133.661 36.3881 123.287 41.6951 113.715C44.1091 109.361 46.2171 107.815 46.2171 107.815C46.2171 107.815 48.5391 111.84 49.9341 115.811Z" fill="white"/>
<path fill-rule="evenodd" clip-rule="evenodd" d="M57.5839 57.2893C57.0669 57.7321 57.5119 58.5974 58.0779 58.9751C58.6449 59.3527 59.3809 59.6388 59.5749 60.2908C58.7119 60.3436 57.9319 59.6136 57.0719 59.7101C56.1219 59.8168 55.5609 60.9494 55.7439 61.8871C55.9259 62.8248 56.6279 63.5701 57.3519 64.1937C58.4809 65.1656 59.7439 65.9823 61.0949 66.6134C61.5889 66.8444 62.1369 67.5429 61.6489 67.7871C61.1949 67.5276 60.7409 67.2681 60.2869 67.0087C61.0459 69.3646 61.8279 71.7683 63.3079 73.7527C64.7889 75.7371 67.1209 77.2617 69.5939 77.119C70.0709 77.0915 70.7609 77.194 70.7159 77.6688C70.3949 77.7432 70.0749 77.8176 69.7539 77.892C70.7449 78.7344 72.1589 78.9405 73.4419 78.7235C74.7249 78.5066 75.9099 77.915 77.0599 77.3062C79.3659 76.085 81.6679 74.7235 83.3439 72.7249C84.4949 71.3533 85.3059 69.7302 85.9739 68.0704C88.0889 62.818 88.8489 57.0279 88.1599 51.4087C88.1249 51.1264 87.9539 50.7526 87.6829 50.8404C81.1199 52.9656 73.7209 52.3806 67.5739 49.2503C66.2439 48.5731 64.9229 47.7341 64.1549 46.4553C66.9999 48.2072 70.1019 49.5425 73.3309 50.4055C76.4959 51.2515 79.8219 51.6429 83.0619 51.1559C86.3019 50.6688 89.4559 49.2559 91.7109 46.8823C94.7849 43.647 95.9119 38.905 95.4729 34.467C95.0339 30.0289 93.1819 25.8445 90.9489 21.9824C90.3079 24.619 88.0329 26.6327 85.4919 27.5942C82.9519 28.5557 80.1629 28.6133 77.4499 28.4806C74.7359 28.3478 72.0139 28.037 69.3099 28.3053C67.6359 28.4715 65.8739 28.9227 64.7479 30.1711C63.0339 32.0716 63.4119 34.9963 63.8949 37.508C63.1419 37.1106 62.7269 36.1653 62.9439 35.3428C59.9369 35.8968 57.7479 38.6936 56.9799 41.6493C56.2109 44.6049 56.5839 47.7221 56.9619 50.7525C57.1219 52.0387 57.2829 53.325 57.4429 54.6112C57.5409 55.3966 57.6649 56.2384 58.2059 56.816C59.9119 58.6339 61.1049 60.9256 61.6169 63.3636C63.4539 60.2256 64.7329 56.7622 65.3739 53.1839C65.5189 52.3781 65.6429 51.5355 66.1069 50.8607C66.5709 50.1859 67.4979 49.7451 68.2309 50.1113C65.3099 54.5664 65.1789 60.6059 61.5669 64.5243C60.9749 63.0361 60.3819 61.5479 59.7899 60.0597C59.3379 58.9243 58.7509 57.6578 57.5839 57.2893Z" fill="white"/>
<path fill-rule="evenodd" clip-rule="evenodd" d="M100.617 101.52C98.2989 103.176 95.9099 104.733 93.4599 106.186C92.9219 109.934 91.6709 117.138 90.7059 123.21C90.2669 125.971 90.2669 128.321 89.8919 130.252C89.1299 134.179 85.9269 136.267 82.0759 136.077C59.5399 134.964 59.2039 146.912 58.3399 139.194C57.4749 131.476 57.0849 123.705 57.1699 115.94C55.4299 117.222 53.6899 118.504 51.9499 119.786C51.3899 118.946 46.4999 111.055 46.7479 108.18C47.0189 105.044 50.4969 100.492 54.4669 96.9082C56.9409 94.6754 59.8319 93.0492 61.5679 91.6695C62.2689 91.1118 65.9229 87.8075 66.7709 84.5805C67.6579 81.2034 65.7579 77.9011 67.4179 77.4589C68.7279 77.11 69.5649 78.145 71.0359 78.804C72.1679 79.3105 74.0349 78.4103 74.4719 79.1263C74.9089 79.8423 74.3289 82.6718 75.4369 83.7594C77.4919 85.775 81.7319 86.1126 82.0759 86.0761C86.6649 85.5891 91.4669 83.5006 92.8519 84.0201C97.6129 85.8057 101.229 94.7727 102.002 97.8494C102.179 98.5514 102.324 99.3093 102.061 99.9838C101.803 100.648 101.198 101.105 100.617 101.52Z" fill="white"/>
<path fill-rule="evenodd" clip-rule="evenodd" d="M95.0599 85.5799C94.9179 85.3959 94.7789 85.2337 94.6489 85.0909C94.0189 84.4005 93.5719 84.1621 93.6789 84.0852C98.2139 80.8208 103.254 78.1646 107.456 74.5409C114.388 68.5631 119.212 61.0544 122.101 54.6114C124.311 49.6806 121.168 60.9925 113.842 71.876C107.817 80.8269 95.3069 85.8975 95.0599 85.5799Z" fill="#E7EAEE"/>
<path fill-rule="evenodd" clip-rule="evenodd" d="M100.618 101.52C101.198 101.105 101.803 100.648 102.062 99.9836C102.324 99.309 102.179 98.5511 102.002 97.8491C100.677 92.5731 97.7371 87.7129 93.6791 84.085C110.557 75.7168 123.331 59.5135 127.516 41.1654C123.867 51.6032 118.97 61.7799 111.602 70.0316C104.235 78.2833 94.1721 84.4971 83.1641 85.6654C80.7151 85.9253 77.9831 85.8478 76.1441 84.2115C74.3061 82.5751 74.3631 78.9097 76.7031 78.1435C81.1051 76.7024 84.6231 73.1365 86.6111 68.9578C88.5981 64.7792 89.1661 60.0358 88.9081 55.4167C88.7901 53.3136 88.6731 50.8138 90.3561 49.5436C94.6131 46.3298 96.6501 40.7374 96.4081 35.4133C96.1661 30.0892 93.8891 25.0265 90.8651 20.635C89.8521 23.7491 87.2521 26.3018 84.1171 27.2613C81.4881 28.0657 78.7321 27.7813 75.9651 27.4958C74.6161 27.3566 73.2641 27.2171 71.9241 27.2035C67.8351 27.162 62.9801 29.1728 62.5251 33.2312C62.3761 34.5597 61.1731 35.3271 59.9861 36.085C59.6001 36.3314 59.2151 36.5769 58.8691 36.8403C55.7221 39.234 55.4411 43.8334 55.9321 47.7531C56.0021 48.3184 56.0831 48.8887 56.1631 49.4616C56.6411 52.8612 57.1311 56.3526 55.7391 59.4337C55.6771 59.5703 55.6111 59.7061 55.5461 59.8421C55.3021 60.3471 55.0581 60.8543 55.0001 61.4074C54.8351 62.9951 56.1041 64.0585 57.4091 65.1527C58.1021 65.7335 58.8051 66.323 59.3101 67.0042C60.5561 68.687 60.5281 71.0513 59.7691 73.0025C59.0101 74.9538 57.6251 76.5865 56.2641 78.179C57.7171 75.3175 58.4641 72.102 58.4211 68.8941L54.5511 75.3857C55.9071 72.1372 56.6741 68.6439 56.8011 65.1266L53.6661 76.3605C55.3251 75.4557 56.6911 74.0253 57.5181 72.328L54.9441 79.792C57.8611 77.8927 60.0761 74.9424 61.0841 71.6135C61.6691 73.0899 62.6631 74.4023 63.9271 75.3665C68.3091 78.7112 67.9731 86.4918 63.3191 89.4472C54.0731 95.3185 47.0021 104.142 41.6951 113.714C36.3881 123.287 32.7171 133.661 29.0701 143.979C34.3241 131.84 40.0291 119.896 46.1671 108.179C47.5981 112.27 49.5461 116.179 51.9501 119.786L57.1701 115.94C57.0851 123.705 57.4761 131.476 58.3401 139.194C59.3671 139.302 59.6101 137.799 59.4481 136.78C57.8981 127.028 57.6661 117.067 58.7581 107.253C57.7271 107.911 57.7071 109.282 57.6891 110.565C57.6851 110.808 57.6821 111.047 57.6711 111.279C57.5301 114.459 55.1551 117.415 52.0761 118.241C50.4891 116.233 48.8771 114.184 47.9731 111.789C47.0701 109.395 46.9711 106.558 48.3401 104.395C52.0161 98.5862 57.3081 93.8094 63.4661 90.7433C66.2061 93.4023 69.4541 95.5364 72.9831 96.9961C74.1051 97.46 75.3971 97.8534 76.5031 97.3514C77.2661 97.0045 77.7901 96.2907 78.2451 95.5868C79.9701 92.9202 81.2271 89.9528 81.9431 86.8596C85.2501 86.3903 88.5251 85.6907 91.7351 84.7675C93.0341 84.394 94.2821 85.4476 95.1601 86.4741C97.8831 89.658 99.8981 93.443 101.018 97.4782C101.247 98.3008 101.433 99.2049 101.087 99.9856C100.809 100.613 100.234 101.051 99.6731 101.447C97.5751 102.932 95.3561 104.246 93.0451 105.372C93.2891 102.867 92.6491 100.284 91.2621 98.1822C93.4471 104.042 92.2921 110.257 91.1251 116.535C90.2331 121.332 89.3351 126.166 89.9131 130.907L93.4601 106.185C95.9111 104.733 98.2991 103.175 100.618 101.52ZM57.5841 57.289C58.7511 57.6575 59.3381 58.924 59.7901 60.0595L61.5671 64.524C63.5821 62.3383 64.5131 59.4926 65.4501 56.6301C66.1931 54.3609 66.9391 52.0811 68.2311 50.1111C67.4981 49.7448 66.5721 50.1856 66.1071 50.8604C65.6741 51.49 65.5371 52.2657 65.4031 53.0213C65.3941 53.0755 65.3841 53.1297 65.3741 53.1836C64.7331 56.7619 63.4541 60.2254 61.6171 63.3634C61.1051 60.9253 59.9121 58.6337 58.2061 56.8157C57.6651 56.2381 57.5411 55.3963 57.4431 54.6109L56.9621 50.7522C56.5841 47.7219 56.2111 44.6047 56.9801 41.649C57.7481 38.6934 59.9371 35.8965 62.9441 35.3426C62.7271 36.165 63.1421 37.1104 63.8951 37.5077C63.4121 34.9961 63.0341 32.0714 64.7481 30.1709C65.8741 28.9224 67.6361 28.4712 69.3101 28.3051C71.3791 28.0998 73.4581 28.2335 75.5361 28.3671C76.1741 28.4081 76.8121 28.4491 77.4501 28.4803C80.1631 28.6131 82.9521 28.5554 85.4921 27.5939C88.0331 26.6325 90.3081 24.6187 90.9491 21.9821C93.1821 25.8443 95.0341 30.0286 95.4731 34.4667C95.9121 38.9048 94.7851 43.6468 91.7111 46.882C89.4561 49.2556 86.3021 50.6685 83.0621 51.1556C79.8221 51.6427 76.4961 51.2513 73.3311 50.4053C70.1021 49.5423 67.0001 48.2069 64.1551 46.455C64.9231 47.7338 66.2441 48.5728 67.5741 49.25C73.7211 52.3803 81.1201 52.9653 87.6831 50.8401C87.9541 50.7524 88.1251 51.1262 88.1601 51.4085C88.8491 57.0276 88.0891 62.8177 85.9741 68.0702C85.3061 69.73 84.4951 71.3531 83.3441 72.7246C81.6681 74.7232 79.3661 76.0848 77.0601 77.3059C75.9101 77.9147 74.7251 78.5063 73.4421 78.7233C72.1591 78.9402 70.7451 78.7342 69.7541 77.8917L70.7161 77.6686C70.7611 77.1937 70.0711 77.0912 69.5941 77.1187C67.1211 77.2614 64.7891 75.7369 63.3081 73.7525C61.8281 71.7681 61.0461 69.3643 60.2871 67.0084L61.6491 67.7868C62.1371 67.5426 61.5891 66.8442 61.0951 66.6131C59.7441 65.982 58.4811 65.1654 57.3521 64.1935C56.6281 63.5698 55.9261 62.8245 55.7441 61.8868C55.5611 60.9492 56.1221 59.8165 57.0721 59.7098C57.5131 59.6603 57.9331 59.828 58.3531 59.9962C58.7531 60.156 59.1541 60.3162 59.5751 60.2905C59.4231 59.7809 58.9411 59.4949 58.4661 59.2139C58.3341 59.1354 58.2021 59.0573 58.0781 58.9748C57.5121 58.5972 57.0671 57.7318 57.5841 57.289ZM69.3071 78.5034C70.5481 79.4357 72.2081 79.7861 73.7201 79.4344C73.0141 81.2314 73.9031 83.3564 75.3891 84.5912C76.8751 85.826 78.8281 86.3357 80.7371 86.6402C80.6811 90.026 79.4601 93.3818 77.3271 96.0139C76.7001 96.7876 75.4881 96.6195 74.5371 96.3233C70.7701 95.1511 67.2851 93.0861 64.4501 90.3464C64.6941 89.9911 65.0851 89.791 65.4771 89.5901C65.8381 89.4054 66.2001 89.22 66.4511 88.9125C66.6791 88.6338 66.7911 88.2814 66.8911 87.936C67.8691 84.546 68.0511 80.9296 67.4181 77.4588C68.0141 77.4681 68.5011 77.8602 68.9771 78.2435C69.0871 78.3322 69.1971 78.4205 69.3071 78.5034ZM127.005 34.2112C126.029 34.7608 124.928 35.508 124.904 36.6276C124.883 37.5838 125.62 38.2247 126.38 38.8856C126.917 39.3521 127.465 39.8286 127.766 40.433C126.203 40.2714 124.796 39.0822 124.376 37.5675C123.957 36.0527 124.551 34.3094 125.809 33.3667C127.216 32.3127 127.673 30.4173 127.814 28.6657C127.843 28.3046 127.863 27.9403 127.884 27.5755C127.962 26.1704 128.041 24.757 128.62 23.488C128.847 22.9917 129.237 22.4748 129.782 22.4625C130.653 22.4429 130.966 23.5942 131.001 24.4645L131.157 28.3658C131.524 27.7121 132.603 27.8745 133.045 28.4809C133.486 29.0873 133.475 29.9 133.447 30.6493C133.652 28.9862 134.317 27.3822 135.348 26.0615C135.672 25.6469 136.159 25.221 136.66 25.3798C137.19 25.5476 137.321 26.2273 137.339 26.7829C137.498 31.6032 136.055 36.4628 133.291 40.4156C132.41 41.675 132.196 43.2639 131.99 44.7899L131.976 44.8934C131.086 51.4909 129.604 58.0086 127.557 64.3433C126.338 68.1121 124.884 71.8807 122.439 74.9975C121.15 76.6413 119.611 78.0698 118.073 79.4829C112.718 84.4003 107.28 89.2256 101.759 93.9558C101.29 93.9557 101.506 93.1948 101.861 92.8877C103.059 91.8513 104.265 90.8226 105.471 89.7936C110.539 85.471 115.611 81.1449 120.104 76.2363C121.413 74.8057 122.678 73.3186 123.668 71.6514C124.622 70.0466 125.307 68.2987 125.945 66.5442C128.746 58.8312 130.7 50.8107 131.758 42.6735C131.834 42.0894 131.897 41.4567 131.602 40.9465C135.276 36.9893 137.103 31.3846 136.467 26.023C135.036 26.6816 134.724 28.2798 134.403 29.9254C134.134 31.3046 133.859 32.7169 132.913 33.6374L132.771 29.742C132.758 29.3681 132.7 28.922 132.364 28.7573C131.809 28.4856 131.33 29.2677 131.274 29.8826C131.218 30.4975 131.11 31.3061 130.501 31.4079C130.701 28.5735 130.532 25.7133 130.001 22.9219C128.638 24.192 128.606 26.2649 128.576 28.1538C128.574 28.2704 128.573 28.3863 128.571 28.5012C128.534 30.4787 128.021 32.8386 126.166 33.5256C126.613 33.8735 127.117 33.5237 127.631 33.1664C127.854 33.0121 128.078 32.8563 128.301 32.7548C129.536 32.1914 130.951 33.7484 130.606 35.0611C130.26 36.3739 128.787 37.1207 127.43 37.115C127.715 36.6407 128.271 36.3534 128.805 36.0773C129.51 35.7131 130.177 35.3685 130.135 34.6399C130.098 34.0063 129.412 33.5711 128.777 33.5753C128.142 33.5795 127.558 33.8997 127.005 34.2112ZM68.3571 56.9844C68.3741 56.7514 68.7121 56.717 68.9551 56.7267C69.7051 56.7566 70.4401 56.5365 71.1511 56.3069L71.2521 56.2743C71.9301 56.0547 72.6191 55.832 73.3341 55.8118C74.0841 55.7907 74.8851 56.0318 75.3351 56.6075C75.3941 56.6834 75.4491 56.7731 75.4361 56.867C75.4131 57.0276 75.2011 57.1047 75.0371 57.0641C74.9101 57.0326 74.8031 56.955 74.6971 56.8779C74.6671 56.856 74.6371 56.8341 74.6071 56.8133C73.7761 56.2462 72.6271 56.4909 71.6711 56.833C71.5991 56.8588 71.5261 56.885 71.4531 56.9114L71.4521 56.9117C70.5601 57.2352 69.6141 57.5776 68.7111 57.3178C68.5391 57.2685 68.3451 57.1556 68.3571 56.9844ZM76.8531 68.1324C77.4231 68.1595 78.0421 68.1732 78.5071 67.8405C79.1561 67.3762 79.2371 66.4442 79.1651 65.6465C79.1221 65.174 79.0481 64.7048 78.9731 64.2358C78.8701 63.5911 78.7681 62.9466 78.7481 62.2947C78.7151 61.1686 78.9711 59.9644 79.7741 59.1783C79.8181 58.9049 79.4581 58.7091 79.1991 58.8045C78.9411 58.8999 78.7871 59.1636 78.6741 59.4163C77.9051 61.1423 78.0951 63.0965 78.2801 65.0022C78.3081 65.292 78.3361 65.5807 78.3611 65.8672C78.4011 66.3303 78.3961 66.8758 78.0291 67.1579C77.7551 67.3679 77.3971 67.3449 77.0421 67.3221C76.9251 67.3146 76.8091 67.3071 76.6961 67.3079C76.4601 67.3096 76.1721 67.3985 76.1291 67.6321C76.0671 67.9625 76.5191 68.1165 76.8531 68.1324ZM75.4061 59.0119C75.6741 58.9737 75.9021 59.2664 75.8941 59.5424C75.8861 59.8185 75.7121 60.0603 75.5201 60.2552C74.8241 60.961 73.8171 61.287 72.8351 61.2926C71.8531 61.2981 70.8911 61.0094 69.9841 60.6264C69.7881 60.5436 69.5881 60.4522 69.4421 60.2944C69.2971 60.1365 69.2191 59.895 69.3081 59.6985C69.3971 59.502 69.6871 59.4141 69.8341 59.5699C70.5031 60.2775 71.5421 60.4604 72.5061 60.4769C73.3781 60.4918 74.3731 60.3323 74.8531 59.5912C74.8801 59.5496 74.9071 59.5056 74.9331 59.4612C75.0551 59.257 75.1831 59.0436 75.4061 59.0119ZM87.0341 60.09C85.9471 61.0328 84.2661 61.3268 82.8881 60.8152C82.5071 60.6739 82.1351 60.4623 81.9311 60.1303C81.8521 60.0005 81.8011 59.8416 81.8581 59.7018C81.9501 59.4759 82.2811 59.4163 82.5231 59.5038C82.7051 59.5698 82.8531 59.6922 83.0001 59.8143C83.0481 59.854 83.0961 59.8938 83.1451 59.9315C84.0131 60.5981 85.3771 60.6172 86.2661 59.9754C86.2851 59.9618 86.3041 59.9478 86.3231 59.9337C86.4651 59.8288 86.6131 59.7193 86.7911 59.7165C86.9921 59.7134 87.1821 59.9618 87.0341 60.09ZM50.6521 118.396C50.2401 118.641 49.9461 119.039 49.6671 119.429C46.8041 123.426 44.2761 127.662 42.1191 132.078C39.9401 136.539 38.1431 141.173 36.3481 145.802C36.1961 146.194 36.0461 146.648 36.2481 147.018C36.5281 147.528 37.3321 147.504 37.7691 147.118C38.2061 146.732 38.3711 146.133 38.5221 145.571C41.0301 136.198 45.1971 127.29 50.5661 119.198C50.7301 118.951 50.8811 118.585 50.6521 118.396ZM74.2541 73.8096C74.2741 74.2725 73.7251 74.537 73.2711 74.5407C72.7781 74.5448 72.2491 74.3634 71.9811 73.9404C71.7131 73.5174 71.8411 72.8396 72.3041 72.6666L69.1061 71.4338C68.8371 71.3302 68.5521 71.2247 68.2681 71.2729C68.2031 71.284 68.1381 71.3033 68.0731 71.3226C67.9651 71.355 67.8571 71.3873 67.7451 71.3803C67.5671 71.3692 67.3811 71.1827 67.4631 71.0204C67.4941 70.9595 67.5531 70.9203 67.6101 70.884L68.7831 70.1322C68.9161 70.0468 69.0621 69.9582 69.2181 69.9745C69.3751 69.9908 69.5191 70.1712 69.4411 70.3106C69.2101 70.724 69.7851 71.1084 70.2351 71.2279C71.7501 71.6293 73.2761 72.0328 74.8391 72.1205C76.4011 72.2082 78.0201 71.9594 79.3611 71.1349C79.7721 70.8816 80.2831 70.5696 80.6911 70.8287C80.5341 71.2884 80.0721 71.5433 79.6201 71.7924C79.1141 72.0713 78.6221 72.343 78.5841 72.887C78.5461 73.4485 78.0541 73.9396 77.5041 73.966C76.9531 73.9923 76.4191 73.5502 76.3291 72.9948C76.3151 72.907 76.2111 72.8726 76.1251 72.8574C75.7301 72.7874 75.3121 72.7509 74.9351 72.893C74.5581 73.035 74.2351 73.3996 74.2541 73.8096ZM73.6741 72.8135C73.4981 72.5923 73.1291 72.6254 72.9321 72.8274C72.7351 73.0294 72.6851 73.3405 72.7151 73.6239C72.9481 73.7575 73.2611 73.7287 73.4671 73.5547C73.6731 73.3806 73.7591 73.0725 73.6741 72.8135ZM77.8641 72.9803C77.8921 72.8681 77.9661 72.7685 78.0631 72.7089C77.9421 72.4941 77.6241 72.5784 77.4071 72.6897C77.2921 72.7487 77.1631 72.8277 77.1471 72.9582C77.1281 73.1185 77.3101 73.2417 77.4671 73.2224C77.6241 73.203 77.7531 73.0912 77.8711 72.9842L77.8641 72.9803ZM84.4771 57.6585C84.6271 57.6969 84.7761 57.7354 84.9281 57.7635C85.7171 57.9095 86.5681 57.7633 87.2391 57.3664C87.4181 57.2608 87.2521 56.985 87.0391 56.9645C86.8741 56.9487 86.7211 57.016 86.5691 57.0828C86.5241 57.1024 86.4801 57.1219 86.4361 57.1392C85.8631 57.3624 85.2241 57.234 84.5871 57.1061C83.9231 56.9727 83.2631 56.84 82.6841 57.1079C82.4751 57.2046 82.2801 57.3798 82.2901 57.5895C82.3011 57.7993 82.6321 57.9613 82.7861 57.8023C83.0331 57.5471 83.4531 57.4822 83.8281 57.5239C84.0491 57.5484 84.2631 57.6034 84.4771 57.6585Z" fill="#00160A"/>
<path fill-rule="evenodd" clip-rule="evenodd" d="M73.7199 79.4343C73.2759 79.5376 72.8199 79.5803 72.3649 79.5656C71.2689 79.5302 70.0249 83.3262 72.3649 87.6558C74.6639 91.9103 78.9949 93.6123 79.5549 92.2657C80.2959 90.4855 80.7049 88.5677 80.7369 86.6401C78.8279 86.3356 76.8749 85.8259 75.3889 84.5911C73.9029 83.3563 73.0139 81.2313 73.7199 79.4343Z" fill="#E7EAEE"/>
<path d="M65.4 69.7441C66.1569 69.7441 66.7705 69.1306 66.7705 68.3737C66.7705 67.6168 66.1569 67.0032 65.4 67.0032C64.6431 67.0032 64.0295 67.6168 64.0295 68.3737C64.0295 69.1306 64.6431 69.7441 65.4 69.7441Z" fill="#FFB61D"/>
<path d="M82.7601 70.2009C83.517 70.2009 84.1306 69.5873 84.1306 68.8304C84.1306 68.0735 83.517 67.46 82.7601 67.46C82.0032 67.46 81.3896 68.0735 81.3896 68.8304C81.3896 69.5873 82.0032 70.2009 82.7601 70.2009Z" fill="#FFB61D"/>
<path fill-rule="evenodd" clip-rule="evenodd" d="M67.931 118.01C68.423 117.437 69.423 117.715 70.18 117.916C72.196 118.451 74.644 117.851 76.145 116.455C77.655 115.05 80.428 116.727 82.408 115.862C83.601 115.34 84.567 113.913 85.77 114.281C87.245 114.732 89.07 114.373 90.276 113.412V113.126L90.281 112.496C89.081 113.555 87.159 113.968 85.618 113.497C84.415 113.129 83.449 114.556 82.255 115.077C80.276 115.943 77.502 114.266 75.992 115.671C74.521 117.039 72.141 117.643 70.149 117.163L69.751 117.059C69.042 116.878 68.213 116.721 67.779 117.226C66.41 118.819 63.699 119.478 61.703 118.704L61.95 119.523L62.068 119.564C64.04 120.215 66.61 119.547 67.931 118.01ZM66.063 109.047C66.583 108.509 67.562 108.799 68.304 109.01C70.28 109.57 72.746 109.051 74.313 107.746C75.889 106.432 78.558 108.106 80.572 107.322C81.787 106.849 82.823 105.501 84 105.882C85.443 106.349 90.775 103.554 90.775 103.554C89.429 103.517 85.487 105.597 83.996 105.158L83.89 105.126C82.714 104.745 81.677 106.092 80.463 106.565C78.448 107.35 75.78 105.676 74.203 106.99C72.668 108.269 70.268 108.793 68.313 108.286L67.923 108.177C67.228 107.986 66.412 107.816 65.953 108.291C64.506 109.789 60.557 109.137 59.833 109.569C59.833 109.569 64.667 110.492 66.063 109.047Z" fill="#FFB61D"/>
<path fill-rule="evenodd" clip-rule="evenodd" d="M67.5199 134.996C68.0119 134.423 69.0109 134.701 69.7679 134.902C71.7839 135.437 74.2319 134.837 75.7329 133.441C77.2429 132.036 80.0169 133.713 81.9959 132.848C83.1899 132.326 84.1559 130.899 85.3579 131.267C86.8339 131.718 88.6589 131.359 89.8639 130.398L89.8649 130.112L89.8689 129.482C88.6699 130.541 86.7469 130.954 85.2059 130.483C84.0029 130.115 83.0369 131.542 81.8439 132.064C79.8639 132.929 77.0909 131.252 75.5809 132.657C74.1099 134.025 71.7289 134.629 69.7369 134.149L69.3399 134.045C68.6309 133.864 67.8019 133.707 67.3679 134.212C65.9979 135.805 63.2869 136.464 61.2919 135.69L61.5389 136.509L61.6569 136.55C63.6279 137.201 66.1989 136.533 67.5199 134.996ZM65.6509 126.034C66.1709 125.496 67.1499 125.786 67.8919 125.996C69.8679 126.557 72.3339 126.038 73.9009 124.732C75.4779 123.418 78.1459 125.093 80.1609 124.308C81.3749 123.835 82.4119 122.487 83.5879 122.868C85.0319 123.336 90.3629 120.541 90.3629 120.541C89.0169 120.503 85.0759 122.584 83.5839 122.145L83.4789 122.112C82.3019 121.731 81.2649 123.079 80.0509 123.552C78.0369 124.336 75.3679 122.662 73.7909 123.976C72.2559 125.255 69.8569 125.779 67.9009 125.272L67.5119 125.164C66.8159 124.973 65.9999 124.803 65.5419 125.277C64.0949 126.775 60.1449 126.123 59.4209 126.555C59.4209 126.555 64.2549 127.479 65.6509 126.034Z" fill="#FFB61D"/>
<path fill-rule="evenodd" clip-rule="evenodd" d="M63.378 38.2968C64.699 39.1102 69.541 30.1711 76.751 30.1711C92.033 30.1711 93.182 25.8445 90.949 21.9824C90.308 24.619 88.033 26.6327 85.492 27.5942C82.952 28.5557 80.163 28.6133 77.45 28.4806C74.736 28.3478 72.014 28.037 69.31 28.3053C67.636 28.4715 65.874 28.9227 64.748 30.1711C63.034 32.0716 63.412 34.9963 63.895 37.508C63.142 37.1106 62.727 36.1653 62.944 35.3428C59.937 35.8968 57.748 38.6936 56.98 41.6493C56.211 44.6049 56.584 47.7221 56.962 50.7525C57.122 52.0387 57.283 53.325 57.443 54.6112C57.443 54.6112 58.128 44.2494 59.056 41.6493C60.32 38.1096 63.673 38.7883 63.378 38.2968Z" fill="#E7EAEE"/>
</svg>
