<svg width="25" height="25" viewBox="0 0 25 25" fill="none" xmlns="http://www.w3.org/2000/svg">
<path d="M14.2958 4.63597C13.3133 3.62135 11.6861 3.62135 10.7037 4.63596L5.90521 9.59169C5.62963 9.87631 5.44444 10.2361 5.37299 10.6258C4.79023 13.8038 4.74721 17.0572 5.24574 20.2495L5.42225 21.3797C5.478 21.7367 5.78546 21.9998 6.14677 21.9998H9.49973C9.77587 21.9998 9.99973 21.776 9.99973 21.4998V14.4998H14.9997V21.4998C14.9997 21.776 15.2236 21.9998 15.4997 21.9998H18.8526C19.2139 21.9998 19.5214 21.7367 19.5772 21.3797L19.7537 20.2495C20.2522 17.0572 20.2092 13.8038 19.6264 10.6258C19.555 10.2361 19.3698 9.87631 19.0942 9.5917L14.2958 4.63597Z" fill="#5C5E61"/>
</svg>
