<svg width="25" height="25" viewBox="0 0 25 25" fill="none" xmlns="http://www.w3.org/2000/svg">
<g filter="url(#filter0_ii_9_1980)">
<path d="M12.5 4.25C10.4289 4.25 8.75 5.92893 8.75 8C8.75 10.0711 10.4289 11.75 12.5 11.75C14.5711 11.75 16.25 10.0711 16.25 8C16.25 5.92893 14.5711 4.25 12.5 4.25Z" fill="#FFC000"/>
<path d="M8.5 13.75C6.42893 13.75 4.75 15.4289 4.75 17.5V18.6883C4.75 19.4415 5.29588 20.0837 6.03927 20.2051C10.3181 20.9037 14.6819 20.9037 18.9607 20.2051C19.7041 20.0837 20.25 19.4415 20.25 18.6883V17.5C20.25 15.4289 18.5711 13.75 16.5 13.75H16.1591C15.9746 13.75 15.7913 13.7792 15.6159 13.8364L14.7504 14.1191C13.2881 14.5965 11.7119 14.5965 10.2496 14.1191L9.38407 13.8364C9.20869 13.7792 9.02536 13.75 8.84087 13.75H8.5Z" fill="#FFC000"/>
</g>
<path d="M12.5 4.25C10.4289 4.25 8.75 5.92893 8.75 8C8.75 10.0711 10.4289 11.75 12.5 11.75C14.5711 11.75 16.25 10.0711 16.25 8C16.25 5.92893 14.5711 4.25 12.5 4.25Z" stroke="black" stroke-width="1.2" stroke-linecap="round" stroke-linejoin="round"/>
<path d="M8.5 13.75C6.42893 13.75 4.75 15.4289 4.75 17.5V18.6883C4.75 19.4415 5.29588 20.0837 6.03927 20.2051C10.3181 20.9037 14.6819 20.9037 18.9607 20.2051C19.7041 20.0837 20.25 19.4415 20.25 18.6883V17.5C20.25 15.4289 18.5711 13.75 16.5 13.75H16.1591C15.9746 13.75 15.7913 13.7792 15.6159 13.8364L14.7504 14.1191C13.2881 14.5965 11.7119 14.5965 10.2496 14.1191L9.38407 13.8364C9.20869 13.7792 9.02536 13.75 8.84087 13.75H8.5Z" stroke="black" stroke-width="1.2" stroke-linecap="round" stroke-linejoin="round"/>
<defs>
<filter id="filter0_ii_9_1980" x="4.1499" y="3.6499" width="16.7002" height="17.6792" filterUnits="userSpaceOnUse" color-interpolation-filters="sRGB">
<feFlood flood-opacity="0" result="BackgroundImageFix"/>
<feBlend mode="normal" in="SourceGraphic" in2="BackgroundImageFix" result="shape"/>
<feColorMatrix in="SourceAlpha" type="matrix" values="0 0 0 0 0 0 0 0 0 0 0 0 0 0 0 0 0 0 127 0" result="hardAlpha"/>
<feOffset dx="2" dy="2"/>
<feComposite in2="hardAlpha" operator="arithmetic" k2="-1" k3="1"/>
<feColorMatrix type="matrix" values="0 0 0 0 1 0 0 0 0 1 0 0 0 0 1 0 0 0 1 0"/>
<feBlend mode="normal" in2="shape" result="effect1_innerShadow_9_1980"/>
<feColorMatrix in="SourceAlpha" type="matrix" values="0 0 0 0 0 0 0 0 0 0 0 0 0 0 0 0 0 0 127 0" result="hardAlpha"/>
<feOffset dx="-2" dy="-1"/>
<feComposite in2="hardAlpha" operator="arithmetic" k2="-1" k3="1"/>
<feColorMatrix type="matrix" values="0 0 0 0 0 0 0 0 0 0 0 0 0 0 0 0 0 0 1 0"/>
<feBlend mode="normal" in2="effect1_innerShadow_9_1980" result="effect2_innerShadow_9_1980"/>
</filter>
</defs>
</svg>
