<svg width="24" height="24" viewBox="0 0 24 24" fill="none" xmlns="http://www.w3.org/2000/svg">
<g filter="url(#filter0_ii_106_4258)">
<path fill-rule="evenodd" clip-rule="evenodd" d="M8.10714 3.79754C8.01125 3.4489 7.9633 3.27458 7.89961 3.19452C7.8336 3.11155 7.78396 3.07537 7.68475 3.03797C7.58903 3.00187 7.45765 3.00753 7.19489 3.01885C6.50172 3.0487 6.03242 3.12615 5.63803 3.3271C5.07354 3.61472 4.6146 4.07366 4.32698 4.63815C4 5.27989 4 6.11996 4 7.80012V17.2001C4 18.8803 4 19.7204 4.32698 20.3621C4.6146 20.9266 5.07354 21.3855 5.63803 21.6731C6.27976 22.0001 7.11984 22.0001 8.8 22.0001H15.2C16.8802 22.0001 17.7202 22.0001 18.362 21.6731C18.9265 21.3855 19.3854 20.9266 19.673 20.3621C20 19.7204 20 18.8803 20 17.2001V7.80012C20 6.11996 20 5.27989 19.673 4.63815C19.3854 4.07366 18.9265 3.61472 18.362 3.3271C17.9676 3.12615 17.4983 3.0487 16.8051 3.01885C16.5424 3.00753 16.411 3.00187 16.3153 3.03797C16.216 3.07537 16.1664 3.11155 16.1004 3.19452C16.0367 3.27458 15.9888 3.4489 15.8929 3.79754C15.5436 5.06733 14.3807 6.00012 13 6.00012H11C9.61925 6.00012 8.45637 5.06733 8.10714 3.79754ZM13 9.00012C12.4477 9.00012 12 9.44784 12 10.0001C12 10.5524 12.4477 11.0001 13 11.0001H15C15.5523 11.0001 16 10.5524 16 10.0001C16 9.44784 15.5523 9.00012 15 9.00012H13ZM12 14.0001C12 13.4478 12.4477 13.0001 13 13.0001H15C15.5523 13.0001 16 13.4478 16 14.0001C16 14.5524 15.5523 15.0001 15 15.0001H13C12.4477 15.0001 12 14.5524 12 14.0001ZM13 17.0001C12.4477 17.0001 12 17.4478 12 18.0001C12 18.5524 12.4477 19.0001 13 19.0001H15C15.5523 19.0001 16 18.5524 16 18.0001C16 17.4478 15.5523 17.0001 15 17.0001H13ZM10 10.0001C10 10.5524 9.55228 11.0001 9 11.0001C8.44772 11.0001 8 10.5524 8 10.0001C8 9.44784 8.44772 9.00012 9 9.00012C9.55228 9.00012 10 9.44784 10 10.0001ZM9 15.0001C9.55228 15.0001 10 14.5524 10 14.0001C10 13.4478 9.55228 13.0001 9 13.0001C8.44772 13.0001 8 13.4478 8 14.0001C8 14.5524 8.44772 15.0001 9 15.0001ZM10 18.0001C10 18.5524 9.55228 19.0001 9 19.0001C8.44772 19.0001 8 18.5524 8 18.0001C8 17.4478 8.44772 17.0001 9 17.0001C9.55228 17.0001 10 17.4478 10 18.0001Z" fill="#FFC000"/>
</g>
<path fill-rule="evenodd" clip-rule="evenodd" d="M8.10714 3.79754C8.01125 3.4489 7.9633 3.27458 7.89961 3.19452C7.8336 3.11155 7.78396 3.07537 7.68475 3.03797C7.58903 3.00187 7.45765 3.00753 7.19489 3.01885C6.50172 3.0487 6.03242 3.12615 5.63803 3.3271C5.07354 3.61472 4.6146 4.07366 4.32698 4.63815C4 5.27989 4 6.11996 4 7.80012V17.2001C4 18.8803 4 19.7204 4.32698 20.3621C4.6146 20.9266 5.07354 21.3855 5.63803 21.6731C6.27976 22.0001 7.11984 22.0001 8.8 22.0001H15.2C16.8802 22.0001 17.7202 22.0001 18.362 21.6731C18.9265 21.3855 19.3854 20.9266 19.673 20.3621C20 19.7204 20 18.8803 20 17.2001V7.80012C20 6.11996 20 5.27989 19.673 4.63815C19.3854 4.07366 18.9265 3.61472 18.362 3.3271C17.9676 3.12615 17.4983 3.0487 16.8051 3.01885C16.5424 3.00753 16.411 3.00187 16.3153 3.03797C16.216 3.07537 16.1664 3.11155 16.1004 3.19452C16.0367 3.27458 15.9888 3.4489 15.8929 3.79754C15.5436 5.06733 14.3807 6.00012 13 6.00012H11C9.61925 6.00012 8.45637 5.06733 8.10714 3.79754ZM13 9.00012C12.4477 9.00012 12 9.44784 12 10.0001C12 10.5524 12.4477 11.0001 13 11.0001H15C15.5523 11.0001 16 10.5524 16 10.0001C16 9.44784 15.5523 9.00012 15 9.00012H13ZM12 14.0001C12 13.4478 12.4477 13.0001 13 13.0001H15C15.5523 13.0001 16 13.4478 16 14.0001C16 14.5524 15.5523 15.0001 15 15.0001H13C12.4477 15.0001 12 14.5524 12 14.0001ZM13 17.0001C12.4477 17.0001 12 17.4478 12 18.0001C12 18.5524 12.4477 19.0001 13 19.0001H15C15.5523 19.0001 16 18.5524 16 18.0001C16 17.4478 15.5523 17.0001 15 17.0001H13ZM10 10.0001C10 10.5524 9.55228 11.0001 9 11.0001C8.44772 11.0001 8 10.5524 8 10.0001C8 9.44784 8.44772 9.00012 9 9.00012C9.55228 9.00012 10 9.44784 10 10.0001ZM9 15.0001C9.55228 15.0001 10 14.5524 10 14.0001C10 13.4478 9.55228 13.0001 9 13.0001C8.44772 13.0001 8 13.4478 8 14.0001C8 14.5524 8.44772 15.0001 9 15.0001ZM10 18.0001C10 18.5524 9.55228 19.0001 9 19.0001C8.44772 19.0001 8 18.5524 8 18.0001C8 17.4478 8.44772 17.0001 9 17.0001C9.55228 17.0001 10 17.4478 10 18.0001Z" stroke="black"/>
<g filter="url(#filter1_ii_106_4258)">
<path fill-rule="evenodd" clip-rule="evenodd" d="M13 2H11C10.4477 2 10 2.44772 10 3C10 3.55228 10.4477 4 11 4H13C13.5523 4 14 3.55228 14 3C14 2.44772 13.5523 2 13 2Z" fill="#FFC000"/>
</g>
<path d="M11 2.5H13C13.2761 2.5 13.5 2.72386 13.5 3C13.5 3.27614 13.2761 3.5 13 3.5H11C10.7239 3.5 10.5 3.27614 10.5 3C10.5 2.72386 10.7239 2.5 11 2.5Z" stroke="black"/>
<defs>
<filter id="filter0_ii_106_4258" x="3.5" y="2.51025" width="17" height="19.9897" filterUnits="userSpaceOnUse" color-interpolation-filters="sRGB">
<feFlood flood-opacity="0" result="BackgroundImageFix"/>
<feBlend mode="normal" in="SourceGraphic" in2="BackgroundImageFix" result="shape"/>
<feColorMatrix in="SourceAlpha" type="matrix" values="0 0 0 0 0 0 0 0 0 0 0 0 0 0 0 0 0 0 127 0" result="hardAlpha"/>
<feOffset dx="2" dy="2"/>
<feComposite in2="hardAlpha" operator="arithmetic" k2="-1" k3="1"/>
<feColorMatrix type="matrix" values="0 0 0 0 1 0 0 0 0 1 0 0 0 0 1 0 0 0 1 0"/>
<feBlend mode="normal" in2="shape" result="effect1_innerShadow_106_4258"/>
<feColorMatrix in="SourceAlpha" type="matrix" values="0 0 0 0 0 0 0 0 0 0 0 0 0 0 0 0 0 0 127 0" result="hardAlpha"/>
<feOffset dx="-2" dy="-1"/>
<feComposite in2="hardAlpha" operator="arithmetic" k2="-1" k3="1"/>
<feColorMatrix type="matrix" values="0 0 0 0 0 0 0 0 0 0 0 0 0 0 0 0 0 0 1 0"/>
<feBlend mode="normal" in2="effect1_innerShadow_106_4258" result="effect2_innerShadow_106_4258"/>
</filter>
<filter id="filter1_ii_106_4258" x="10" y="2" width="4" height="2" filterUnits="userSpaceOnUse" color-interpolation-filters="sRGB">
<feFlood flood-opacity="0" result="BackgroundImageFix"/>
<feBlend mode="normal" in="SourceGraphic" in2="BackgroundImageFix" result="shape"/>
<feColorMatrix in="SourceAlpha" type="matrix" values="0 0 0 0 0 0 0 0 0 0 0 0 0 0 0 0 0 0 127 0" result="hardAlpha"/>
<feOffset dx="2" dy="2"/>
<feComposite in2="hardAlpha" operator="arithmetic" k2="-1" k3="1"/>
<feColorMatrix type="matrix" values="0 0 0 0 1 0 0 0 0 1 0 0 0 0 1 0 0 0 1 0"/>
<feBlend mode="normal" in2="shape" result="effect1_innerShadow_106_4258"/>
<feColorMatrix in="SourceAlpha" type="matrix" values="0 0 0 0 0 0 0 0 0 0 0 0 0 0 0 0 0 0 127 0" result="hardAlpha"/>
<feOffset dx="-2" dy="-1"/>
<feComposite in2="hardAlpha" operator="arithmetic" k2="-1" k3="1"/>
<feColorMatrix type="matrix" values="0 0 0 0 0 0 0 0 0 0 0 0 0 0 0 0 0 0 1 0"/>
<feBlend mode="normal" in2="effect1_innerShadow_106_4258" result="effect2_innerShadow_106_4258"/>
</filter>
</defs>
</svg>
